<svg width="423" height="588" viewBox="0 0 423 588" fill="none" xmlns="http://www.w3.org/2000/svg">
<path d="M290.467 74.2328H395.738C405.432 74.2328 413.286 82.4402 413.286 92.5484V559.546C413.286 569.664 405.432 577.862 395.738 577.862H27.2619C17.5674 577.862 9.71362 569.664 9.71362 559.546V92.5484C9.71362 82.4402 17.5674 74.2328 27.2619 74.2328H132.552" fill="white"/>
<path d="M395.738 588H27.262C12.2316 588 0 575.228 0 559.546V92.5484C0 76.8667 12.2316 64.0953 27.262 64.0953H132.552V84.3708H27.262C22.941 84.3708 19.4266 88.0339 19.4266 92.5484V559.546C19.4266 564.061 22.941 567.724 27.262 567.724H395.738C400.054 567.724 403.573 564.061 403.573 559.546V92.5484C403.573 88.0339 400.054 84.3708 395.738 84.3708H290.467V64.0953H395.738C410.773 64.0953 423 76.8667 423 92.5484V559.546C423 575.228 410.773 588 395.738 588Z" fill="#454545"/>
<path d="M272.919 55.9171C272.919 55.9171 246.606 49.9573 246.606 46.7696C246.606 26.523 230.879 10.1385 211.509 10.1385C192.121 10.1385 176.413 26.523 176.413 46.7696C176.413 49.9573 150.1 55.9171 150.1 55.9171C140.406 55.9171 132.552 64.1246 132.552 74.2327V110.864C132.552 120.972 140.406 129.179 150.1 129.179H272.919C282.594 129.179 290.467 120.972 290.467 110.864V74.2327C290.467 64.1246 282.594 55.9171 272.919 55.9171Z" fill="#FFBE55"/>
<path d="M272.919 139.317H150.1C135.07 139.317 122.838 126.546 122.838 110.864V74.2327C122.838 58.9471 134.439 46.4428 148.933 45.7992C155.824 44.2152 162.948 42.2053 167.069 40.7501C169.906 17.801 188.753 0 211.509 0C234.265 0 253.113 17.801 255.949 40.7501C260.071 42.2053 267.194 44.2152 274.086 45.7992C288.579 46.4428 300.181 58.9471 300.181 74.2327V110.864C300.181 126.546 287.949 139.317 272.919 139.317ZM211.509 20.276C197.513 20.276 186.126 32.1564 186.126 46.7696C186.126 55.155 180.994 59.2931 152.158 65.8175C151.485 65.9763 150.792 66.0552 150.1 66.0552C145.779 66.0552 142.265 69.7182 142.265 74.2327V110.864C142.265 115.379 145.779 119.042 150.1 119.042H272.919C277.24 119.042 280.754 115.379 280.754 110.864V74.2327C280.754 69.7182 277.24 66.0552 272.919 66.0552C272.226 66.0552 271.534 65.9763 270.861 65.8175C242.025 59.2931 236.893 55.155 236.893 46.7696C236.893 32.1564 225.506 20.276 211.509 20.276Z" fill="#454545"/>
<path d="M85.2378 275.893C106.696 275.893 124.091 257.737 124.091 235.341C124.091 212.945 106.696 194.789 85.2378 194.789C63.7799 194.789 46.3848 212.945 46.3848 235.341C46.3848 257.737 63.7799 275.893 85.2378 275.893Z" fill="#FFBE55"/>
<path d="M85.2381 259.814L58.9443 232.371L72.6791 218.035L85.2381 231.143L117.223 197.759L130.959 212.095L85.2381 259.814Z" fill="#454545"/>
<path d="M85.2377 397.547C106.696 397.547 124.091 379.392 124.091 356.996C124.091 334.599 106.696 316.444 85.2377 316.444C63.7798 316.444 46.3848 334.599 46.3848 356.996C46.3848 379.392 63.7798 397.547 85.2377 397.547Z" fill="#BCBCBC"/>
<path d="M85.2377 519.202C106.696 519.202 124.091 501.047 124.091 478.651C124.091 456.255 106.696 438.099 85.2377 438.099C63.7798 438.099 46.3848 456.255 46.3848 478.651C46.3848 501.047 63.7798 519.202 85.2377 519.202Z" fill="#BCBCBC"/>
<path d="M376.634 225.203H182.37V204.927H376.634V225.203Z" fill="#454545"/>
<path d="M298.929 265.754H182.37V245.479H298.929V265.754Z" fill="#454545"/>
<path d="M240.649 346.858H182.37V326.582H240.649V346.858Z" fill="#454545"/>
<path d="M376.634 346.858H260.076V326.582H376.634V346.858Z" fill="#454545"/>
<path d="M337.781 387.41H182.37V367.133H337.781V387.41Z" fill="#454545"/>
<path d="M376.634 468.512H182.37V448.237H376.634V468.512Z" fill="#454545"/>
<path d="M240.649 509.064H182.37V488.789H240.649V509.064Z" fill="#454545"/>
<path d="M318.355 509.064H260.076V488.789H318.355V509.064Z" fill="#454545"/>
</svg>
