<svg width="1009" height="891" viewBox="0 0 1009 891" fill="none" xmlns="http://www.w3.org/2000/svg">
<path d="M816.7 248.7C885.018 248.7 940.4 193.318 940.4 125C940.4 56.6824 885.018 1.30005 816.7 1.30005C748.382 1.30005 693 56.6824 693 125C693 193.318 748.382 248.7 816.7 248.7Z" stroke="#D3D3D3" stroke-miterlimit="10" stroke-dasharray="12.14 12.14"/>
<path d="M301 138.4C277.1 148.8 253.4 161.6 236.7 181.6C220 201.6 211.6 230.3 221.7 254.4C235.1 286.5 277.5 305.2 277.7 340C277.8 364.9 254.8 383.9 231.6 393C208.4 402.1 182.7 405.3 161.6 418.6C129.7 438.6 114.8 477.3 108.7 514.4C102.4 552.9 104.9 596.8 132.2 624.8C166 659.3 222 655.4 270 648C334 638.1 397.7 626.5 461.5 614.9C601.2 589.4 740.9 564 880.5 538.5C895.5 535.8 911.1 532.8 923.2 523.6C947.4 505.4 949.4 467.9 935.4 441.2C921.4 414.4 895.4 396.2 869.6 380.5C843.8 364.8 816.5 349.9 797.2 326.6C777.9 303.4 768.3 268.9 782.9 242.5C795.3 220.1 821.9 208.1 833.5 185.3C848.8 155.2 831.2 116.8 803.4 97.6001C775.6 78.4001 427.1 83.2001 301 138.4Z" fill="#D6D6D6" fill-opacity="0.8"/>
<path d="M530.2 586.4H287.7V774.8H530.2V586.4Z" fill="#2596BE"/>
<path d="M177 774.9H640.9C663.5 774.9 681.8 793.2 681.8 815.8H136.1C136.1 793.2 154.4 774.9 177 774.9Z" fill="#A8CBE2"/>
<path d="M730 665H87.9C77 665 68.2 656.2 68.2 645.3V270.4C68.2 259.5 77 250.7 87.9 250.7H730C740.9 250.7 749.7 259.5 749.7 270.4V645.2C749.7 656.1 740.9 665 730 665Z" fill="#A8CBE2"/>
<path d="M717.5 640.9H100.4C92 640.9 85.1 634.1 85.1 625.6V280.8C85.1 272.4 91.9 265.5 100.4 265.5H717.6C726 265.5 732.9 272.3 732.9 280.8V625.6C732.8 634.1 726 640.9 717.5 640.9Z" fill="#EBEBEB"/>
<path d="M12.9 810.9H977.1C983.7 810.9 989.1 816.3 989.1 822.9V878.5C989.1 885.1 983.7 890.5 977.1 890.5H12.9C6.29999 890.5 0.899994 885.1 0.899994 878.5V822.9C0.899994 816.3 6.29999 810.9 12.9 810.9Z" fill="#D3D3D3"/>
<path d="M882 796.3C875.8 804.6 864 828.9 845.6 830.3C861.7 833 883.7 829.6 887.2 821.1C889.5 827.9 888.1 829.8 888.1 829.8L899.9 828.7L899.6 795.8L882 796.3Z" fill="#072938"/>
<path d="M795 795.8C788.2 803.6 775.5 828.3 757.1 828.3C772.9 832.2 795.1 830.5 799.2 822.3C801 829.3 799.4 831 799.4 831L811.2 830.8L813.4 798L795 795.8Z" fill="#072938"/>
<path d="M839.9 520C839.9 520 777.5 780.3 767.5 791.7C781.6 795.2 837.8 806.7 837.3 798.6C837.3 798.6 847.1 749.4 840.4 666.7C847.5 614 897.2 569 864.2 519C856.5 514.4 839.9 520 839.9 520Z" fill="#072C3D"/>
<path d="M839.9 520L845 541.8C845 541.8 854.5 794.7 847.9 808.4C862.4 808 919.6 804.1 917 796.4C917 796.4 913.2 746.4 884.8 668.5C877.6 615.8 918.2 558.4 873 519.1C842.4 508.4 839.9 520 839.9 520Z" fill="#0A3851"/>
<path d="M842.5 442C823.4 452.5 801.7 542.7 783 459.2C776.4 459.6 772.9 459.5 772.9 459.5C772.9 459.5 777.2 553.1 846.5 474.7C854.3 432 842.5 442 842.5 442Z" fill="#1D8CDD"/>
<path d="M848.2 439.9L842.5 441.9C842.5 441.9 825.7 472.9 824.1 477.7C826.1 485.2 839.3 505.7 840 520.1C849.1 523.1 863.5 523.8 873.1 519.2C874.1 516.3 880.2 477.2 883.6 455.7C884.7 448.4 879.2 441.7 871.8 441.5L865 441.3L848.2 439.9Z" fill="#2596BE"/>
<path d="M836.6 410.8C830.6 405.8 825.5 391.7 833.6 387.6C840.8 384 866.3 378.8 871.8 397.7C873.2 402.4 872.8 407.4 871.1 412C866.5 424.7 856.7 433 856.7 433L836.6 410.8Z" fill="#0B4870"/>
<path d="M851.6 426.4C851.4 428.4 850.7 438.1 848.2 439.9C851.4 445.9 852.3 451.7 852.3 451.7C852.3 451.7 862.2 442.6 864.8 441.2C863.3 435.7 858.1 422.1 858.1 422.1L851.6 426.4Z" fill="#FCD2B1"/>
<path d="M836.1 396.1C834.6 404.7 833.4 421.9 838.5 429.9C840.6 433.2 844.4 435 848.3 434.7C860.5 433.7 861.8 425.6 863.5 417.7C865.4 409.1 863.7 378.1 836.1 396.1Z" fill="#FFE3CA"/>
<path d="M832 395C836.6 402.9 843.8 408.2 851.3 409.1C854.5 409.5 857.8 409.2 861.1 409.9C864.3 410.6 867.6 412.6 869.2 416.3C869.2 416.4 859.5 370.6 832 395Z" fill="#0B4870"/>
<path d="M867.874 418.694C868.6 415.973 867.804 413.397 866.096 412.942C864.389 412.487 862.416 414.324 861.69 417.046C860.965 419.767 861.761 422.342 863.469 422.797C865.176 423.253 867.149 421.416 867.874 418.694Z" fill="#FFE3CA"/>
<path d="M857.3 390C860.7 385.2 864.2 380.3 868.9 376.9C873.7 373.5 880 371.7 885.5 373.7C888.9 375 891.7 377.6 894.9 379.4C902.7 383.6 912.3 382.3 920.6 379.3C928.9 376.3 936.7 371.8 945.2 369.6C953.7 367.4 963.8 368.1 970.1 374.3C979 383.1 975.4 399.6 965.3 406.9C955.1 414.2 941.1 413.8 929.3 409.5C915.7 404.6 902.2 395 888.2 398.3C883.9 399.3 880 401.5 876 403.3C872 405.1 867.6 406.5 863.2 405.9C858.8 405.3 854.5 402.2 853.9 397.8C853.3 393.4 857.7 388.7 861.9 390.1" fill="#0B4870"/>
<path d="M861 428.2C861 431.8 862.4 434.7 864 434.7C865.7 434.7 867 431.8 867 428.2C867 424.6 864 421.7 864 421.7C864 421.7 861 424.6 861 428.2Z" fill="#FFBE55"/>
<path d="M1008.6 619.1C1008.4 621.4 1007 623.3 1004.8 624.1C1002.7 624.9 1000.3 624.3 998.7 622.7L974.2 598.2C972.5 596.5 970 596 967.8 597L945.1 606.7C944.3 607.1 943.6 607.5 943.1 608.1C942.7 608.6 942.4 609.1 942.1 609.7L932.2 632.7C931.2 634.9 931.7 637.4 933.4 639.1L958 663.6C959.6 665.2 960.1 667.6 959.3 669.7C958.5 671.8 956.6 673.3 954.3 673.4C935.8 674.5 918 666.6 906.3 652.3C894.6 638 890.5 618.9 895.3 601C896.3 597 895.2 592.8 892.4 589.8L836.3 533.7L800.6 498L744.6 442C741.6 439.1 737.4 438 733.4 439.1C715.5 443.9 696.4 439.8 682.1 428.1C667.8 416.4 659.9 398.6 661 380.1C661.2 377.8 662.6 375.9 664.7 375.1C666.8 374.3 669.2 374.8 670.8 376.4L695.3 401C697 402.7 699.5 403.2 701.7 402.2L724.7 392.3C725.3 392 725.8 391.7 726.3 391.3C726.9 390.7 727.4 390 727.7 389.3L737.4 366.6C738.4 364.4 737.9 361.9 736.2 360.2L711.7 335.7C710.1 334.1 709.6 331.7 710.3 329.6C711 327.5 713 326 715.3 325.8C733.8 324.7 751.7 332.6 763.3 346.9C774.9 361.2 779.1 380.4 774.2 398.2C773.2 402.2 774.3 406.4 777.1 409.4L842.5 474.8L924.9 557.2C927.9 560.1 932.1 561.2 936.1 560.1C954 555.3 973.1 559.4 987.4 571C1001.8 582.8 1009.7 600.7 1008.6 619.1Z" fill="#FFBE55"/>
<path d="M954.3 673.4C935.8 674.5 918 666.6 906.3 652.3C894.6 638 890.5 618.9 895.3 601C896.3 597 895.2 592.8 892.4 589.8L836.3 533.7L800.6 498L744.6 442C741.6 439.1 737.4 438 733.4 439.1C715.5 443.9 696.4 439.8 682.1 428.1C667.8 416.4 659.9 398.6 661 380.1C661.2 377.8 662.6 375.9 664.7 375.1C666.8 374.3 669.2 374.8 670.8 376.4L695.3 401C697 402.7 699.5 403.2 701.7 402.2L724.7 392.3C725.3 392 725.8 391.7 726.3 391.3L943 608.1C942.6 608.6 942.3 609.1 942 609.7L932.1 632.7C931.1 634.9 931.6 637.4 933.3 639.1L957.9 663.6C959.5 665.2 960 667.6 959.2 669.7C958.5 671.8 956.6 673.2 954.3 673.4Z" fill="#F9AC3D"/>
<path d="M772.9 462.9C772.9 462.9 768.6 470.5 769.2 472C769.8 473.5 775.9 478.6 775.9 478.6L779.4 473.5L772.9 462.9Z" fill="#FCD2B1"/>
<path d="M876 531.9C876 531.9 870.5 531.8 870.1 531.1C869.7 530.4 865.8 525 861.4 524.6C862.2 525.8 863.9 530.1 865.2 530.5C860.4 530.5 850.5 531.8 849 532.7C850.1 536.1 854.8 541.1 859.2 542.4C865.4 542.1 870.6 538.6 870.6 538.6C870.6 538.6 876.4 538.7 876.2 538.4C876 538.1 876 531.9 876 531.9Z" fill="#FCD2B1"/>
<path d="M874.4 441.8C912.2 450 942.3 545.8 872 543.5C871.5 540.3 873.6 530.4 873.6 530.4C873.6 530.4 924.2 536.7 881.2 470.2C870 461.4 874.4 441.8 874.4 441.8Z" fill="#2596BE"/>
<path d="M493.9 468.6C492.5 467.2 490.9 466.5 489 466.5H464.6V434.5L483.4 415.7C484.8 414.3 485.5 412.7 485.5 410.8C485.5 408.9 484.8 407.3 483.4 405.9C482 404.5 480.4 403.8 478.5 403.8C476.6 403.8 475 404.5 473.6 405.9L454.8 424.7H363L344.2 406C342.8 404.6 341.2 403.9 339.3 403.9C337.4 403.9 335.8 404.6 334.4 406C333 407.4 332.3 409 332.3 410.9C332.3 412.8 333 414.4 334.4 415.8L353.2 434.6V466.6H328.8C326.9 466.6 325.3 467.3 323.9 468.7C322.5 470.1 321.8 471.7 321.8 473.6C321.8 475.5 322.5 477.1 323.9 478.5C325.3 479.9 326.9 480.6 328.8 480.6H353.2C353.2 492.2 355.3 502.1 359.5 510.4L337.5 535.1C336.3 536.6 335.7 538.2 335.8 540.2C335.9 542.1 336.7 543.7 338 545C339.4 546.2 340.9 546.7 342.7 546.7C344.7 546.7 346.5 545.9 347.9 544.4L367.8 521.9L369.4 523.4C370.4 524.3 372 525.5 374.1 526.9C376.2 528.3 378.6 529.7 381.3 531.1C383.9 532.5 387.1 533.7 390.8 534.7C394.5 535.7 398.1 536.2 401.8 536.2V438.7H415.7V536.2C419.2 536.2 422.7 535.7 426.3 534.8C429.9 533.9 432.8 532.8 435.2 531.6C437.6 530.4 440 529.1 442.3 527.6C444.6 526.1 446.1 525.1 446.9 524.5C447.6 523.9 448.2 523.4 448.5 523.1L470 544.5C471.3 545.9 472.9 546.6 474.9 546.6C476.9 546.6 478.5 545.9 479.8 544.5C481.2 543.1 481.9 541.5 481.9 539.6C481.9 537.7 481.2 536.1 479.8 534.7L457.4 512C462.3 503.4 464.7 492.9 464.7 480.4H489C490.9 480.4 492.5 479.7 493.9 478.3C495.3 476.9 496 475.3 496 473.4C496 471.6 495.3 470 493.9 468.6Z" fill="#2596BE"/>
<path d="M433.6 386.2C426.8 379.4 418.6 376 409 376C399.4 376 391.1 379.4 384.4 386.2C377.6 393 374.2 401.2 374.2 410.8H443.8C443.8 401.2 440.4 393 433.6 386.2Z" fill="#2596BE"/>
<path d="M103.7 827.8C126.9 827.8 136.6 809.3 140.5 789.7C144.8 767.6 141.7 744 141.7 744H65.8C65.8 744 65.7 744.9 65.5 746.5C64 760.4 59.4 827.8 103.7 827.8Z" fill="#B6E7FF"/>
<path d="M65.7 743.9C65.7 745.6 82.7 746.9 103.6 746.9C124.6 746.9 141.5 745.6 141.5 743.9C141.5 742.2 124.5 740.9 103.6 740.9C82.7 740.9 65.7 742.3 65.7 743.9Z" fill="#85DDFF"/>
<path d="M0.899994 533.6C0.899994 533.6 40.9 594.5 64.9 631.6C88.9 668.7 95.2 676.5 98.1 688.5C101 700.5 103.5 744.8 103.5 744.8H105.3C105.3 744.8 104.7 707.2 102.5 694.5C100.4 682.3 102.6 677.9 104.4 665C106.1 652.1 108.4 631.6 95.4 617.3C82.4 603 85.8 589 81.3 579.6C76.7 570.2 41.3 558.7 36.7 549C32.1 539.3 12 533.3 0.899994 533.6Z" fill="#2596BE"/>
<path d="M0.899994 533.6C0.899994 533.6 13.5 547.9 22.1 552.8C30.7 557.7 34.7 553.4 41.3 565.1C47.9 576.8 48.1 582 54.1 588C60.1 594 67.3 594.3 67.8 607.4C68.4 620.5 64.9 631.7 64.9 631.7C64.9 631.7 3.49999 536.7 0.899994 533.6Z" fill="#41AAF7"/>
<path d="M100.4 744.8H98.6C98.6 744.8 98.1 732.6 93.2 726.7C90.1 722.9 76.8 718.6 63.7 713.4C56.5 710.5 49.3 707.4 43.9 704C28.7 694.3 14.2 663.2 12.9 657.6C12.5 655.7 12.3 654.5 12.3 653.7C12.3 652.2 13.1 652 14.4 650.5C15 649.8 16.9 650 19.1 650.7C25.7 652.7 31.2 657.2 34.6 663.1C37.8 668.6 42.9 675.5 49.1 677.1C59.8 680 59 681.8 62.9 692.7C66.9 703.6 76.8 705.4 89.4 718.3C102 731.2 100.4 744.8 100.4 744.8Z" fill="#2596BE"/>
<path d="M63.7 713.4C56.5 710.5 49.3 707.4 43.9 704C28.7 694.3 14.2 663.2 12.9 657.6C12.5 655.7 12.3 654.5 12.3 653.7C12.3 654.1 13.1 659 21 662.3C29.2 665.7 30.8 665.7 31.9 670.9C33 676.1 33.9 681.6 38.2 682.7C42.5 683.8 45.2 678.9 48.6 686.8C52 694.7 53.6 697.4 56.8 698.4C59.9 699.5 62.3 697.9 63 704C63.4 707.7 63.6 711.2 63.7 713.4Z" fill="#41AAF7"/>
<path d="M113.5 744.8H115.6C115.6 744.8 119.8 669.4 125.5 662.4C129.2 657.9 141.4 649.8 156.9 643.6C165.4 640.2 173.9 636.5 180.3 632.5C198.3 621 215.5 584.1 217 577.6C217.5 575.3 217.8 573.9 217.7 573C217.7 571.2 216.8 571 215.3 569.2C214.6 568.3 212.4 568.6 209.7 569.5C201.9 571.9 195.4 577.2 191.3 584.2C187.5 590.7 181.5 598.8 174.2 600.8C161.5 604.2 162.5 606.3 157.8 619.3C153.1 632.2 141.3 634.4 126.4 649.6C111.6 664.7 113.5 744.8 113.5 744.8Z" fill="#2596BE"/>
<path d="M156.9 643.7C165.4 640.3 173.9 636.6 180.3 632.6C198.3 621.1 215.5 584.2 217 577.7C217.5 575.4 217.8 574 217.7 573.1C217.6 573.5 216.8 579.4 207.4 583.3C197.7 587.3 195.7 587.3 194.5 593.5C193.2 599.6 192.2 606.2 187.1 607.5C182 608.8 178.8 603 174.8 612.4C170.8 621.7 168.8 624.9 165.1 626.2C161.4 627.5 158.6 625.6 157.8 632.8C157.3 636.9 157 641.1 156.9 643.7Z" fill="#41AAF7"/>
<path d="M103.7 827.8C126.9 827.8 136.6 809.3 140.5 789.7C117.8 781.1 89.2 767.3 65.5 746.5C64 760.4 59.4 827.8 103.7 827.8Z" fill="#A8CBE2"/>
</svg>
