<svg width="1920" height="1080" viewBox="0 0 1920 1080" fill="none" xmlns="http://www.w3.org/2000/svg">
<g clip-path="url(#clip0_10_60)">
<path opacity="0.11" d="M600.527 1028.37C490.477 972.593 291.192 961.54 309.259 609.184C327.326 256.828 808.775 245.123 864.615 70.95C920.455 -103.222 1508.09 47.438 1160.37 477.116C1098.79 553.2 1243.33 637.672 1218.04 776.107C1192.74 914.542 710.578 1084.14 600.527 1028.37Z" fill="#2A94F4"/>
<path opacity="0.11" d="M815.141 1080C1032.67 1080 1209.01 1052.9 1209.01 1019.47C1209.01 986.048 1032.67 958.95 815.141 958.95C597.616 958.95 421.277 986.048 421.277 1019.47C421.277 1052.9 597.616 1080 815.141 1080Z" fill="#2A94F4"/>
<path d="M1112.88 1011.58H490.99C477.735 1011.58 466.99 1000.83 466.99 987.579V130.18C466.99 116.925 477.735 106.18 490.99 106.18H1112.88C1126.14 106.18 1136.88 116.925 1136.88 130.18V987.579C1136.88 1000.83 1126.14 1011.58 1112.88 1011.58Z" fill="#0B4870"/>
<path d="M1083.08 978.979H520.794C507.539 978.979 496.794 968.234 496.794 954.979V162.78C496.794 149.525 507.539 138.78 520.794 138.78H1083.07C1096.33 138.78 1107.07 149.525 1107.07 162.78V954.978C1107.08 968.234 1096.33 978.979 1083.08 978.979Z" fill="#F7F7F7"/>
<path opacity="0.11" d="M662.568 251.983H577.04V337.511H662.568V251.983Z" fill="#2A94F4"/>
<path d="M572.711 276.352C577.052 278.565 581.068 281.083 584.984 283.696C588.876 286.33 592.677 289.051 596.337 291.903C603.698 297.569 610.641 303.628 617.294 309.958L602.532 311.05C604.722 307.569 606.862 304.445 609.195 301.291C611.486 298.145 613.904 295.106 616.397 292.123C621.412 286.183 626.776 280.518 632.609 275.292C638.473 270.096 644.717 265.261 651.513 261.164C658.352 257.151 665.638 253.647 673.502 251.983C668.465 258.249 663.754 264.03 659.135 269.893L645.504 287.395C640.979 293.201 636.451 298.997 631.877 304.761L618.177 321.889L610.516 331.466L603.414 322.982C597.52 315.94 591.915 308.626 586.728 300.92C584.114 297.086 581.641 293.12 579.26 289.068C576.901 284.994 574.643 280.825 572.711 276.352Z" fill="#FFBE55"/>
<path opacity="0.11" d="M662.568 502.68H577.04V588.208H662.568V502.68Z" fill="#2A94F4"/>
<path opacity="0.11" d="M662.568 759.764H577.04V845.292H662.568V759.764Z" fill="#2A94F4"/>
<g opacity="0.52">
<g opacity="0.52">
<path opacity="0.52" d="M1036.51 251.983H701.06V265.754H1036.51V251.983Z" fill="#2A94F4"/>
<path opacity="0.52" d="M1036.51 287.862H701.06V301.633H1036.51V287.862Z" fill="#2A94F4"/>
<path opacity="0.52" d="M847.661 323.74H1036.51V337.511H701.06V323.74H847.661Z" fill="#2A94F4"/>
</g>
</g>
<g opacity="0.52">
<g opacity="0.52">
<path opacity="0.52" d="M1036.51 502.68H701.06V516.451H1036.51V502.68Z" fill="#2A94F4"/>
<path opacity="0.52" d="M1036.51 538.558H701.06V552.329H1036.51V538.558Z" fill="#2A94F4"/>
<path opacity="0.52" d="M860.91 574.436H701.06V588.207H860.91V574.436Z" fill="#2A94F4"/>
</g>
</g>
<g opacity="0.52">
<g opacity="0.52">
<path opacity="0.52" d="M1036.51 759.764H701.06V773.535H1036.51V759.764Z" fill="#2A94F4"/>
<path opacity="0.52" d="M1022.91 795.642H701.06V809.413H1022.91V795.642Z" fill="#2A94F4"/>
<path opacity="0.52" d="M1036.51 831.52H701.06V845.291H1036.51V831.52Z" fill="#2A94F4"/>
</g>
</g>
<path d="M949.751 150.324H654.119V86.036C654.119 72.781 664.864 62.036 678.119 62.036H925.751C939.006 62.036 949.751 72.781 949.751 86.036V150.324Z" fill="#FFBE55"/>
<path d="M981.358 880.179H693.488V1055.31H981.358V880.179Z" fill="#FFBE55"/>
<path d="M981.358 880.179H693.488L717.076 827.338H957.771L981.358 880.179Z" fill="#FFBE55"/>
<path opacity="0.11" d="M981.358 880.179H693.488V1055.31H981.358V880.179Z" fill="#FFBE55"/>
<path d="M792.765 584.688C792.765 584.688 725.545 660.649 720.736 686.07C715.927 711.491 781.656 823.848 781.656 823.848L751.115 845.135L812.062 839.309C812.062 839.309 786.413 746.033 771.834 714.268C791.442 700.973 838.672 648.933 838.672 648.933L882.481 751.007L901.366 867.644L951.996 882.544L922.439 850.476C927.677 764.749 927.58 764.729 931.413 738.524C935.078 713.474 913.345 622.613 906.93 593.657C900.516 564.702 811.722 572.77 792.765 584.688Z" fill="#0E538C"/>
<path d="M777.516 357.174C778.419 360.597 799.741 450.541 799.741 450.541C799.741 450.541 780.361 460.028 772.318 449.168C764.275 438.308 761.585 356.04 761.585 356.04L777.516 357.174Z" fill="#FCD2B1"/>
<path d="M774.045 339.36C774.045 339.36 762.32 329.239 758.688 336.834C755.056 344.43 761.455 352.51 761.585 356.04C761.715 359.57 777.516 357.174 777.516 357.174C777.516 357.174 781.573 345.684 774.045 339.36Z" fill="#FCD2B1"/>
<path d="M781.399 354.288L657.28 307.839C657.28 307.839 646.114 320.298 650.056 335.189L775.952 363.874C775.952 363.874 782.58 365.506 781.399 354.288Z" fill="#FFBE55"/>
<path d="M851.962 415.632L841.128 444.535C841.128 444.535 842.452 458.236 857.443 458.518C872.434 458.8 874.93 450.133 874.93 450.133L872.457 415.844C872.458 415.845 858.367 411.94 851.962 415.632Z" fill="#FCD2B1"/>
<path d="M757.298 438.06L742.411 435.096L730.99 372.351L745.178 356.92L734.967 353.98C734.967 353.98 736.993 341.345 735.485 334.831C733.976 328.318 729.693 326.675 719.033 330.871C713.413 334.132 708.972 354.431 714.31 365.94C719.648 377.45 719.117 449.878 718.009 461.519C716.901 473.16 749.314 480.698 749.314 480.698C749.314 480.698 764.82 482.833 769.893 466.602C774.966 450.371 757.298 438.06 757.298 438.06Z" fill="#FCD2B1"/>
<path d="M853.958 439.537C842.066 437.18 827.945 436.159 811.972 438.137C783.417 439.267 757.298 438.06 757.298 438.06C757.298 438.06 745.823 458.073 749.315 480.697C749.315 480.697 777.773 498.102 805.181 499.198C808.311 512.049 803.417 570.185 792.765 584.687C800.783 597.132 868.15 611.83 906.93 593.657C913.52 580.85 906.84 526.271 901.426 490.029C897.679 464.941 878.842 444.471 853.958 439.537Z" fill="#FFBE55"/>
<path d="M847.162 368.219C847.162 368.219 825.662 394.505 828.186 404.602C830.712 414.699 842.816 424.094 871.507 427.278C881.355 425.802 892.253 396.392 892.004 390.238C890.375 349.96 857.74 361.425 847.162 368.219Z" fill="#FFE3CA"/>
<path d="M873.95 382.785C873.95 382.785 836.402 376.721 832.746 357.754C829.091 338.787 859.739 329.041 873.327 334.971C879.115 337.497 882.039 341.928 885.443 346.91C889.272 352.514 894.016 354.407 900.127 357.647C902.094 358.69 904.072 359.741 905.826 361.113C915.296 368.525 911.935 377.327 910.336 387.248C908.8 396.78 907.318 406.588 901.064 414.347C890.187 427.838 871.957 425.744 872.46 415.843C872.961 405.945 884.066 385.13 873.95 382.785Z" fill="#0B4870"/>
<path d="M781.655 823.848C781.655 823.848 799.997 823.495 806.979 821.492C810.106 832.292 812.062 839.309 812.062 839.309L751.115 845.135L781.655 823.848Z" fill="#0B4870"/>
<path d="M898.098 846.279C906.878 851.362 922.44 850.477 922.44 850.477L951.997 882.544L901.366 866.464L898.098 846.279Z" fill="#0B4870"/>
<path d="M657.28 307.839L623.105 310.033L650.056 335.189L657.28 336.835L649.905 327.799L661.348 328.401L652.916 319.367L665.864 319.668L655.626 312.743L667.014 311.482L657.28 307.839Z" fill="#FFE3CA"/>
<path d="M639.937 308.952C639.937 308.952 640.461 318.715 635.095 321.224L623.105 310.032L639.937 308.952Z" fill="#FFBE55"/>
<path d="M776.379 352.41C776.379 352.41 764.71 355.621 752.063 351.104C739.416 346.587 752.738 332.244 761.585 333.243C770.432 334.241 782.186 342.172 776.379 352.41Z" fill="#FAB9AF"/>
</g>
<defs>
<clipPath id="clip0_10_60">
<rect width="1920" height="1080" fill="white"/>
</clipPath>
</defs>
</svg>
