<svg width="962" height="1080" viewBox="0 0 962 1080" fill="none" xmlns="http://www.w3.org/2000/svg">
<path opacity="0.11" d="M292.527 1028.37C182.477 972.593 -16.808 961.54 1.259 609.184C19.326 256.828 500.775 245.123 556.615 70.95C612.455 -103.222 1200.09 47.438 852.367 477.116C790.794 553.2 935.332 637.672 910.038 776.107C884.744 914.542 402.578 1084.14 292.527 1028.37Z" fill="#2596BE"/>
<path opacity="0.11" d="M507.141 1080C724.666 1080 901.005 1052.9 901.005 1019.47C901.005 986.048 724.666 958.95 507.141 958.95C289.616 958.95 113.277 986.048 113.277 1019.47C113.277 1052.9 289.616 1080 507.141 1080Z" fill="#2596BE"/>
<path d="M804.88 1011.58H182.99C169.735 1011.58 158.99 1000.83 158.99 987.579V130.18C158.99 116.925 169.735 106.18 182.99 106.18H804.88C818.135 106.18 828.88 116.925 828.88 130.18V987.579C828.88 1000.83 818.135 1011.58 804.88 1011.58Z" fill="#0B4870"/>
<path d="M775.076 978.979H212.794C199.539 978.979 188.794 968.234 188.794 954.979V162.78C188.794 149.525 199.539 138.78 212.794 138.78H775.075C788.33 138.78 799.075 149.525 799.075 162.78V954.978C799.076 968.234 788.331 978.979 775.076 978.979Z" fill="#F7F7F7"/>
<path opacity="0.11" d="M354.568 251.983H269.04V337.511H354.568V251.983Z" fill="#2A94F4"/>
<path d="M264.711 276.352C269.052 278.565 273.068 281.083 276.984 283.696C280.876 286.33 284.677 289.051 288.337 291.903C295.698 297.569 302.641 303.628 309.294 309.958L294.532 311.05C296.722 307.569 298.862 304.445 301.195 301.291C303.486 298.145 305.904 295.106 308.397 292.123C313.412 286.183 318.776 280.518 324.609 275.292C330.473 270.096 336.717 265.261 343.513 261.164C350.352 257.151 357.638 253.647 365.502 251.983C360.465 258.249 355.754 264.03 351.135 269.893L337.504 287.395C332.979 293.201 328.451 298.997 323.877 304.761L310.177 321.889L302.516 331.466L295.414 322.982C289.52 315.94 283.915 308.626 278.728 300.92C276.114 297.086 273.641 293.12 271.26 289.068C268.901 284.994 266.643 280.825 264.711 276.352Z" fill="#FFBE55"/>
<g opacity="0.11" filter="url(#filter0_d_11_2)">
<path d="M354.568 502.68H269.04V588.208H354.568V502.68Z" fill="#2A94F4"/>
<path d="M269.54 503.18H354.068V587.708H269.54V503.18Z" stroke="black"/>
</g>
<path opacity="0.11" d="M354.568 759.764H269.04V845.292H354.568V759.764Z" fill="#2A94F4"/>
<g opacity="0.52">
<g opacity="0.52">
<path opacity="0.52" d="M728.507 251.983H393.06V265.754H728.507V251.983Z" fill="#2A94F4"/>
<path opacity="0.52" d="M728.507 287.862H393.06V301.633H728.507V287.862Z" fill="#2A94F4"/>
<path opacity="0.52" d="M539.661 323.74H728.507V337.511H393.06V323.74H539.661Z" fill="#2A94F4"/>
</g>
</g>
<g opacity="0.52">
<g opacity="0.52">
<path opacity="0.52" d="M728.507 502.68H393.06V516.451H728.507V502.68Z" fill="#2A94F4"/>
<path opacity="0.52" d="M728.507 538.558H393.06V552.329H728.507V538.558Z" fill="#2A94F4"/>
<path opacity="0.52" d="M552.91 574.436H393.06V588.207H552.91V574.436Z" fill="#2A94F4"/>
</g>
</g>
<g opacity="0.52">
<g opacity="0.52">
<path opacity="0.52" d="M728.507 759.764H393.06V773.535H728.507V759.764Z" fill="#2A94F4"/>
<path opacity="0.52" d="M714.913 795.642H393.06V809.413H714.913V795.642Z" fill="#2A94F4"/>
<path opacity="0.52" d="M728.507 831.52H393.06V845.291H728.507V831.52Z" fill="#2A94F4"/>
</g>
</g>
<path d="M641.751 150.324H346.119V86.036C346.119 72.781 356.864 62.036 370.119 62.036H617.751C631.006 62.036 641.751 72.781 641.751 86.036V150.324Z" fill="#FFBE55"/>
<path d="M673.358 880.179H385.488V1055.31H673.358V880.179Z" fill="#FFBE55"/>
<path d="M673.358 880.179H385.488L409.076 827.338H649.771L673.358 880.179Z" fill="#FFBE55"/>
<path opacity="0.11" d="M673.358 880.179H385.488V1055.31H673.358V880.179Z" fill="#FFBE55"/>
<path d="M484.765 584.688C484.765 584.688 417.545 660.649 412.736 686.07C407.927 711.491 473.656 823.848 473.656 823.848L443.115 845.135L504.062 839.309C504.062 839.309 478.413 746.033 463.834 714.268C483.442 700.973 530.672 648.933 530.672 648.933L574.481 751.007L593.366 867.644L643.996 882.544L614.439 850.476C619.677 764.749 619.58 764.729 623.413 738.524C627.078 713.474 605.345 622.613 598.93 593.657C592.516 564.702 503.722 572.77 484.765 584.688Z" fill="#0E538C"/>
<path d="M469.516 357.174C470.419 360.597 491.741 450.541 491.741 450.541C491.741 450.541 472.361 460.028 464.318 449.168C456.275 438.308 453.585 356.04 453.585 356.04L469.516 357.174Z" fill="#FCD2B1"/>
<path d="M466.045 339.36C466.045 339.36 454.32 329.239 450.688 336.834C447.056 344.43 453.455 352.51 453.585 356.04C453.715 359.57 469.516 357.174 469.516 357.174C469.516 357.174 473.573 345.684 466.045 339.36Z" fill="#FCD2B1"/>
<path d="M473.399 354.288L349.28 307.839C349.28 307.839 338.114 320.298 342.056 335.189L467.952 363.874C467.952 363.874 474.58 365.506 473.399 354.288Z" fill="#FFBE55"/>
<path d="M543.962 415.632L533.128 444.535C533.128 444.535 534.452 458.236 549.443 458.518C564.434 458.8 566.93 450.133 566.93 450.133L564.457 415.844C564.458 415.845 550.367 411.94 543.962 415.632Z" fill="#FCD2B1"/>
<path d="M449.298 438.06L434.411 435.096L422.99 372.351L437.178 356.92L426.967 353.98C426.967 353.98 428.993 341.345 427.485 334.831C425.976 328.318 421.693 326.675 411.033 330.871C405.413 334.132 400.972 354.431 406.31 365.94C411.648 377.45 411.117 449.878 410.009 461.519C408.901 473.16 441.314 480.698 441.314 480.698C441.314 480.698 456.82 482.833 461.893 466.602C466.966 450.371 449.298 438.06 449.298 438.06Z" fill="#FCD2B1"/>
<path d="M545.958 439.537C534.066 437.18 519.945 436.159 503.972 438.137C475.417 439.267 449.298 438.06 449.298 438.06C449.298 438.06 437.823 458.073 441.315 480.697C441.315 480.697 469.773 498.102 497.181 499.198C500.311 512.049 495.417 570.185 484.765 584.687C492.783 597.132 560.15 611.83 598.93 593.657C605.52 580.85 598.84 526.271 593.426 490.029C589.679 464.941 570.842 444.471 545.958 439.537Z" fill="#FFBE55"/>
<path d="M539.162 368.219C539.162 368.219 517.662 394.505 520.186 404.602C522.712 414.699 534.816 424.094 563.507 427.278C573.355 425.802 584.253 396.392 584.004 390.238C582.375 349.96 549.74 361.425 539.162 368.219Z" fill="#FFE3CA"/>
<path d="M565.95 382.785C565.95 382.785 528.402 376.721 524.746 357.754C521.091 338.787 551.739 329.041 565.327 334.971C571.115 337.497 574.039 341.928 577.443 346.91C581.272 352.514 586.016 354.407 592.127 357.647C594.094 358.69 596.072 359.741 597.826 361.113C607.296 368.525 603.935 377.327 602.336 387.248C600.8 396.78 599.318 406.588 593.064 414.347C582.187 427.838 563.957 425.744 564.46 415.843C564.961 405.945 576.066 385.13 565.95 382.785Z" fill="#0B4870"/>
<path d="M473.655 823.848C473.655 823.848 491.997 823.495 498.979 821.492C502.106 832.292 504.062 839.309 504.062 839.309L443.115 845.135L473.655 823.848Z" fill="#0B4870"/>
<path d="M590.098 846.279C598.878 851.362 614.44 850.477 614.44 850.477L643.997 882.544L593.366 866.464L590.098 846.279Z" fill="#0B4870"/>
<path d="M349.28 307.839L315.105 310.033L342.056 335.189L349.28 336.835L341.905 327.799L353.348 328.401L344.916 319.367L357.864 319.668L347.626 312.743L359.014 311.482L349.28 307.839Z" fill="#FFE3CA"/>
<path d="M331.937 308.952C331.937 308.952 332.461 318.715 327.095 321.224L315.105 310.032L331.937 308.952Z" fill="#FFBE55"/>
<path d="M468.379 352.41C468.379 352.41 456.71 355.621 444.063 351.104C431.416 346.587 444.738 332.244 453.585 333.243C462.432 334.241 474.186 342.172 468.379 352.41Z" fill="#FAB9AF"/>
<defs>
<filter id="filter0_d_11_2" x="265.04" y="502.68" width="93.5281" height="93.5281" filterUnits="userSpaceOnUse" color-interpolation-filters="sRGB">
<feFlood flood-opacity="0" result="BackgroundImageFix"/>
<feColorMatrix in="SourceAlpha" type="matrix" values="0 0 0 0 0 0 0 0 0 0 0 0 0 0 0 0 0 0 127 0" result="hardAlpha"/>
<feOffset dy="4"/>
<feGaussianBlur stdDeviation="2"/>
<feComposite in2="hardAlpha" operator="out"/>
<feColorMatrix type="matrix" values="0 0 0 0 0 0 0 0 0 0 0 0 0 0 0 0 0 0 0.25 0"/>
<feBlend mode="normal" in2="BackgroundImageFix" result="effect1_dropShadow_11_2"/>
<feBlend mode="normal" in="SourceGraphic" in2="effect1_dropShadow_11_2" result="shape"/>
</filter>
</defs>
</svg>
