<svg width="693" height="718" viewBox="0 0 693 718" fill="none" xmlns="http://www.w3.org/2000/svg">
<path d="M297.3 424.9H286.9C195.2 424.9 120.9 499.2 120.9 590.9V623.8C120.9 629.1 125.2 633.4 130.5 633.4H471.5C481 633.4 488.6 625.7 488.6 616.3C488.6 510.6 402.9 424.9 297.3 424.9Z" fill="#2894F5"/>
<path d="M130.5 633.3H471.5C476.4 633.3 480.9 631.2 484 627.8L452.1 605.6C452.1 526.7 388.2 462.8 309.3 462.8H305.1C236.7 462.8 181.2 518.3 181.2 586.7L123.4 630.1C125.1 632.1 127.7 633.3 130.5 633.3Z" fill="#0A4A6F"/>
<path d="M343.967 546.491C365.114 525.618 360.932 487.093 334.627 460.444C308.322 433.794 269.855 429.111 248.708 449.985C227.562 470.858 231.743 509.383 258.048 536.033C284.353 562.682 322.821 567.365 343.967 546.491Z" fill="#2894F5"/>
<path d="M336.178 536.062C353.905 518.564 350.411 486.28 328.374 463.955C306.336 441.629 274.101 437.715 256.374 455.213C238.647 472.711 242.141 504.994 264.178 527.32C286.216 549.646 318.451 553.56 336.178 536.062Z" fill="#FFB3A6"/>
<path d="M284.7 444.3C263.4 444.3 248.4 458 245.6 477.4C254.6 502.4 279.8 521.6 305 521.6C326.3 521.6 341.3 507.9 344.1 488.5C335 463.5 309.9 444.3 284.7 444.3Z" fill="#F49E92"/>
<path d="M405.2 393.7L402.9 391.1L399 420.6L397.9 448.5L400.2 443.9C404.5 435.1 407 425.6 407.6 415.8L408.4 403.3C408.6 399.8 407.5 396.3 405.2 393.7Z" fill="#FFB3A6"/>
<path d="M379.1 379.6L373.6 397.7L352.2 429.6C344.1 441.9 341.4 457 344.7 471.4L345.9 476.6C346.3 478.2 346.9 479.7 347.7 481.1L412.8 595.1C424.7 616 445.7 630.1 469.5 633.2C490 635.9 507.4 618.1 504.4 597.6L503.8 593.8C500.9 574.4 490.7 556.8 475.4 544.7L388.8 476.3L402.4 435.3L405.2 391.4L398.7 369.3C395.4 374.3 394.1 380.4 395.1 386.4L396.1 392.5L391.3 417.4L394.6 392.3L389.5 368.4L388.7 370.3C386.5 375.1 385.8 380.4 386.6 385.6L386.3 392.8L378.3 414.3L383.3 393.2L383.5 374.5C381.3 375.4 379.8 377.3 379.1 379.6Z" fill="#FFB3A6"/>
<path d="M475.4 544.7L388.8 476.3C388.8 476.3 488.4 567.9 501.8 615.6C504.3 610.2 505.4 604.1 504.4 597.6L503.8 593.8C500.9 574.4 490.8 556.8 475.4 544.7Z" fill="#FFD0C5"/>
<path d="M369.8 373.5L360.5 376.4L334.1 292C328.3 273.3 338.7 253.4 357.4 247.5L377.3 241.3L400.3 315C408 339.6 394.3 365.8 369.8 373.5Z" fill="#1E0F00"/>
<path d="M298.5 481.9C257.3 481.9 224 448.5 224 407.4V321.6C224 282.3 255.8 250.5 295.1 250.5H307C352 250.5 388.5 287 388.5 332V392C388.5 441.6 348.2 481.9 298.5 481.9Z" fill="#FFD0C5"/>
<path d="M307 250.4H295.1C271.6 250.4 250.7 261.8 237.8 279.4V312.4C237.8 353.6 271.2 386.9 312.3 386.9C344.4 386.9 372.5 370.1 388.5 344.8V331.8C388.5 286.9 352 250.4 307 250.4Z" fill="#FFB3A6"/>
<path d="M233.6 385.4L224.3 388.3L197.9 304C192.1 285.3 202.5 265.4 221.2 259.5L241.1 253.3L264.1 327C271.8 351.5 258.2 377.7 233.6 385.4Z" fill="#1E0F00"/>
<path d="M212.1 312.1C206.3 293.4 216.7 273.5 235.4 267.6L244.7 264.7L241.1 253.2L221.2 259.4C202.5 265.2 192.1 285.2 197.9 303.9L224.3 388.2L233.6 385.3C234 385.2 234.5 385 234.9 384.9L212.1 312.1Z" fill="#094A73"/>
<path d="M403 299.2H226.6V277.2C226.6 244.5 253.1 218 285.8 218H321.9C366.7 218 403 254.4 403 299.2Z" fill="#1E0F00"/>
<path d="M255.9 247.2L429.2 214.4C433.6 237.4 418.4 259.6 395.4 264L305.5 281C282.5 285.3 260.3 270.2 255.9 247.2Z" fill="#1E0F00"/>
<path d="M331.5 232.7L400.8 219.6C402.5 228.8 396.5 237.7 387.3 239.4L351.3 246.2C342.1 248 333.3 241.9 331.5 232.7Z" fill="#094A73"/>
<path d="M271.5 251.7L365.1 196.6C372.4 209 368.3 225 355.8 232.4L307.3 261C294.8 268.3 278.8 264.2 271.5 251.7Z" fill="#1E0F00"/>
<path d="M226.2 399.7C236.693 399.7 245.2 389.358 245.2 376.6C245.2 363.842 236.693 353.5 226.2 353.5C215.707 353.5 207.2 363.842 207.2 376.6C207.2 389.358 215.707 399.7 226.2 399.7Z" fill="#FFD0C5"/>
<path d="M225.8 363C220.2 363 215.5 368 214.7 374.6C216.4 373.4 218.3 372.8 220.3 372.8C226.5 372.8 231.5 378.9 231.5 386.5C231.5 387.2 231.5 387.9 231.4 388.6C234.7 386.2 237 381.8 237 376.8C237 369.1 232 363 225.8 363Z" fill="#FFB3A6"/>
<path d="M218.1 404.2L220.7 401.9V431.7L218.1 459.5L216.5 454.6C213.4 445.3 212.1 435.5 212.8 425.8L213.7 413.3C213.8 409.8 215.4 406.5 218.1 404.2Z" fill="#FFB3A6"/>
<path d="M245.8 393.6L248.9 412.3L266 446.7C272.4 460 273.1 475.3 268 489.1L266.1 494.1C265.5 495.6 264.7 497 263.8 498.3L184.2 602.9C169.6 622 147 633.3 122.9 633.3C102.1 633.3 87.1001 613.4 92.8001 593.4L93.9001 589.7C99.3001 570.8 111.7 554.7 128.6 544.7L223.6 488.1L215.4 445.7L218.4 401.8L227.7 380.7C230.3 386.1 230.8 392.3 229.1 398.1L227.3 404L228.8 429.3V404L237 381L237.6 382.9C239.2 387.9 239.2 393.3 237.7 398.4L237 405.5L242.2 427.8L240 406.2L242.2 387.6C244.1 389.2 245.4 391.3 245.8 393.6Z" fill="#FFD0C5"/>
<path d="M266.2 494.1L268.1 489.1C273.2 475.3 272.5 460 266.1 446.7L249 412.3L245.9 393.6C245.5 391.2 244.2 389.1 242.3 387.7L242 390.4C242.9 393.4 245.2 401.3 244.6 407.7C243.9 415.9 267.7 463.5 255.8 488.1C243.9 512.7 155.3 636.3 95.4001 616.5C100.6 626.3 110.8 633.2 123.1 633.2C147.2 633.2 169.8 622 184.4 602.8L264 498.2C264.8 497 265.6 495.6 266.2 494.1Z" fill="#FFB3A6"/>
<path d="M234.8 387.3C235.3 391.5 235.6 398.3 233.3 404.8C234 411.5 236.8 422.3 242.1 427.3L237 405.5L237.7 398.4C239.2 393.4 239.2 388 237.6 382.9L237 381L234.8 387.3Z" fill="#FFB3A6"/>
<path d="M224.4 401.9C224.4 401.9 223.7 422.6 228.8 428.6L227.4 404.1L229.2 398.2C230.8 392.7 230.5 386.8 228.2 381.6C228 384.3 227.7 396.6 224.4 401.9Z" fill="#FFB3A6"/>
<path d="M338.4 433.9C326.9 433.9 316 441.7 314.1 451.4C314.1 451.5 314.1 451.5 314.1 451.6C313.8 453.1 315.8 454 316.8 452.8C321.4 447.3 329 443.6 337 443.6C344.5 443.6 350.4 446.9 353.1 451.9C353.8 453.1 355.6 452.9 355.9 451.5C357.7 441.7 349.9 433.9 338.4 433.9Z" fill="#FFB3A6"/>
<path d="M275.9 130.8C273.7 120 273.9 111.5 276.6 105.3C279.2 99.1 284.9 91.4 293.4 82.2C297.9 77.8 301.1 73 303.1 67.5C305.1 62.1 305.4 56.2 304.1 49.9C302.7 43.4 299.9 38.6 295.6 35.4C291.3 32.3 285.9 31.4 279.5 32.7C274.3 33.8 270.3 36.3 267.5 40.2C264.7 44.1 263.9 49.2 265 55.5L226.8 63.6L226.4 63C222.8 46.9 225.3 33.7 234.1 23.4C242.9 13.1 255.9 6.09996 273.1 2.49996C291.5 -1.40004 307 0.199956 319.6 7.19996C332.1 14.3 340.1 25.7 343.4 41.5C345.5 51.2 344.4 60.7 340.4 70.1C336.3 79.5 330.4 87.4 322.4 93.9C318.1 98.2 315.5 102.4 314.6 106.5C313.7 110.6 313.9 115.9 315.2 122.3L275.9 130.8ZM325.3 170.8L286.3 179.1L279.7 147.7L318.7 139.4L325.3 170.8Z" fill="#0A4A6F"/>
<path d="M413.6 194.3L401.1 176.7L415.2 166.7L427.7 184.3L413.6 194.3ZM422.9 161.2C427.8 157.8 432 156.1 435.7 156.1C439.4 156.1 444.4 157.2 450.8 159.5C453.9 160.8 457 161.4 460.2 161.2C463.3 161 466.3 159.9 469.1 157.9C472 155.8 473.8 153.4 474.4 150.6C475 147.8 474.3 144.9 472.3 142C470.6 139.7 468.5 138.2 466 137.7C463.5 137.1 460.7 137.8 457.9 139.8L445.7 122.6L445.9 122.3C453.1 117.1 460.2 115.5 467.2 117.7C474.2 119.8 480.4 124.8 485.9 132.5C491.8 140.8 494.3 148.8 493.5 156.5C492.7 164.2 488.7 170.6 481.6 175.7C477.2 178.8 472.3 180.3 466.8 180.3C461.3 180.3 456.1 179 451.1 176.5C448.1 175.3 445.4 174.9 443.2 175.3C440.9 175.7 438.4 176.9 435.5 179L422.9 161.2Z" fill="#0A4A6F"/>
<path d="M196 197.4C191.7 193.3 189.2 189.5 188.4 185.9C187.7 182.3 187.8 177.2 188.8 170.5C189.5 167.2 189.4 164 188.6 161C187.8 158 186.1 155.3 183.6 152.9C181 150.4 178.2 149.2 175.4 149.1C172.5 149 169.9 150.3 167.4 152.9C165.4 155 164.4 157.3 164.4 159.9C164.4 162.5 165.6 165 168 167.5L153.5 182.9L153.1 182.7C146.5 176.7 143.6 170.1 144.3 162.8C145 155.5 148.6 148.4 155.1 141.5C162.1 134.1 169.4 130 177.2 129.3C184.9 128.6 192 131.2 198.3 137.2C202.2 140.9 204.7 145.4 205.8 150.8C206.9 156.2 206.7 161.6 205.2 166.9C204.6 170.1 204.8 172.8 205.6 174.9C206.4 177 208.2 179.3 210.7 181.7L196 197.4ZM230.2 200L215.4 215.7L202.8 203.8L217.6 188.1L230.2 200Z" fill="#0A4A6F"/>
<path d="M392.3 478.9C392.3 478.9 398.1 473.9 405.6 477.4C413.1 480.9 420.4 487.2 420.6 493.2C420.8 499.2 412.5 532.2 375.2 529.2C371 527.8 367.5 524.7 365.5 520.7L364.3 518.3C363.3 516.3 364.7 513.9 367 513.9C373.7 513.8 385.9 512.1 394.8 502.8C407.8 489.1 392.3 478.9 392.3 478.9Z" fill="white"/>
<path d="M399.9 476.2C395.4 476.3 392.3 478.9 392.3 478.9C392.3 478.9 407.8 489.2 394.8 502.7C385.8 512.1 373.7 513.7 367 513.8C364.8 513.8 363.3 516.2 364.3 518.2L365.5 520.6C365.9 521.4 366.4 522.2 366.9 522.9C399.5 522.3 407 492.4 406.7 486.8C406.6 483.1 403.7 479.3 399.9 476.2Z" fill="#CCE9FF"/>
<path d="M402.4 517.6C403.56 517.6 404.5 516.66 404.5 515.5C404.5 514.34 403.56 513.4 402.4 513.4C401.24 513.4 400.3 514.34 400.3 515.5C400.3 516.66 401.24 517.6 402.4 517.6Z" fill="#CCE9FF"/>
<path d="M384 527.2C385.16 527.2 386.1 526.26 386.1 525.1C386.1 523.94 385.16 523 384 523C382.84 523 381.9 523.94 381.9 525.1C381.9 526.26 382.84 527.2 384 527.2Z" fill="#CCE9FF"/>
<path d="M394.4 523.7C395.56 523.7 396.5 522.76 396.5 521.6C396.5 520.44 395.56 519.5 394.4 519.5C393.24 519.5 392.3 520.44 392.3 521.6C392.3 522.76 393.24 523.7 394.4 523.7Z" fill="#CCE9FF"/>
<path d="M634 632.4H28.3999C72.5999 664.6 122.9 682.9 167.7 682.9H169C191 704.5 219.8 717.6 245.1 717.6H486.7C512 717.6 530.1 704.5 534.5 682.9H535.8C580.6 682.8 616 664.6 634 632.4Z" fill="#FFBE55"/>
<path d="M634 632.4H28.3999C72.5999 664.6 122.9 682.9 167.7 682.9H169C191 704.5 219.8 717.6 245.1 717.6H486.7C512 717.6 530.1 704.5 534.5 682.9H535.8C580.6 682.8 616 664.6 634 632.4Z" fill="#FFBE55"/>
</svg>
