<svg width="572" height="428" viewBox="0 0 572 428" fill="none" xmlns="http://www.w3.org/2000/svg">
<path d="M291.8 415.7C275.3 418.2 267.2 418.8 250 417C248.8 410.6 242.9 377.1 242.9 377.1C242.9 377.1 236.1 409.7 235.3 417.5C220.6 422.6 194.4 417.1 194.4 417.1C194.4 417.1 192.7 386 192 374.6C189.5 332.2 208.6 315.3 208.6 315.3C208.6 315.3 223.8 312.9 244.2 313.1C264.6 313.3 278 314.9 278 314.9C278 314.9 294.9 338.5 294 360.7C293.2 382.9 294 399.9 291.8 415.7Z" fill="#2596BE"/>
<path opacity="0.5" d="M217.1 377.1C217.1 377.1 230.9 384.2 243.3 375.8C243.3 375.8 257.1 385.1 271.3 375.8" stroke="#0E538C" stroke-miterlimit="10"/>
<path opacity="0.5" d="M245.1 336.2C245.1 336.2 247.3 358.4 243.8 373.1" stroke="#0E538C" stroke-miterlimit="10"/>
<path opacity="0.5" d="M257.1 335.8L258.9 357.6C258.9 357.6 270.9 365.2 277.1 363.4C283.3 361.6 290.9 350.5 290.9 350.5L284.2 330.5C284.2 330.5 278.4 333.2 270.9 334.5C264.7 335.5 257.1 335.8 257.1 335.8Z" fill="#0E538C"/>
<path opacity="0.5" d="M231.8 336.7L230 358.5C230 358.5 218 366.1 211.8 364.3C205.6 362.5 198 351.4 198 351.4L204.7 331.4C204.7 331.4 210.5 334.1 218 335.4C224.2 336.4 231.8 336.7 231.8 336.7Z" fill="#0E538C"/>
<path d="M200.9 316.5C208.6 318.6 216.4 320.5 224.4 321.3C234.6 322.4 244.7 322 254.9 321.2C262.8 320.5 271 320.1 278.6 317.8C279.5 317.5 280.3 317.2 281.2 316.9C280.3 312 279.5 307.2 279.1 303.3C278.7 299.7 280.7 282.6 282 271.7C283.3 260.8 283.3 227.7 278.1 224.2C272.9 220.7 261.1 219.5 258 219C245.6 216.9 227.5 217 220.6 218.1C214.1 219.1 204.5 223.4 201.9 229.4C198.5 237.2 198.9 252 201 262.7C203.2 273.4 203.8 294.2 203.7 299.1C203.5 302.2 202.3 309 200.9 316.5Z" fill="#D2D2D2"/>
<path d="M228.5 277C228.5 277 250.7 308.3 263.1 309.7" stroke="#B7B7B7" stroke-miterlimit="10"/>
<path d="M307.2 282.7C330.9 288.6 356.3 282.4 374.7 277.8C373.7 295.1 381 307.7 380.2 310C379.5 312.2 357.6 323 342.7 323.9C327.8 324.8 306.6 317.5 305.4 315.2C304.9 313.8 307.9 297.5 307.2 282.7Z" fill="#E9BEAE"/>
<path d="M321.6 188.6L323 207.3L350 202.8L341.8 177.4L321.6 188.6Z" fill="#F9CBBA"/>
<path d="M366.4 160.3C362.4 147.5 369.8 120.9 339.7 115.4C315.6 111 303 131.8 303 131.8C303 131.8 291 136.3 288.7 144.9C282.9 167.2 294.1 169.3 291.3 179C288.5 188.7 293.6 198.5 302.2 200C310.8 201.5 317.6 196.6 317.6 196.6C317.6 196.6 323.6 198.6 330.8 197.5C334.5 197 338.5 195.6 342.2 192.8C349 194.9 359.1 194.1 366 187.7C375.6 178.8 370.3 173 366.4 160.3Z" fill="#0F528C"/>
<path d="M289.9 146.8C289.9 146.8 285 158.8 286.5 167.4C287.6 173.8 293.3 174.9 289.9 183.5C287.1 190.6 291 195.5 294 196.6" stroke="#0A4971" stroke-miterlimit="10"/>
<path d="M348.2 125.2C348.2 125.2 353.8 130.1 355.1 136.6C356.4 143.2 353.6 151.8 356.2 156.3C358.8 160.8 361.3 167.6 361.1 174.3C360.9 181.1 355.3 188.4 355.3 188.4" stroke="#0A4971" stroke-miterlimit="10"/>
<path d="M360.8 156.3C360.8 156.3 364.6 163.4 365.3 170.4C366.1 177.3 361.9 185.6 360.4 186.3" stroke="#0A4971" stroke-miterlimit="10"/>
<path d="M296.6 140.2C296.6 140.2 288.7 148.8 291.5 155.4C294.3 162 298.4 169.5 297.1 173.2C295.8 177 292.8 184.1 296.4 186.9" stroke="#0A4971" stroke-miterlimit="10"/>
<path d="M298.9 160.8C298.9 160.8 302.7 167.6 301.9 171.1C301.1 174.7 298.3 180.5 301.3 184.2C304.3 188 306 191.9 306 191.9" stroke="#0A4971" stroke-miterlimit="10"/>
<path d="M304.3 150.8C304.3 150.8 302.6 158.6 305.8 163.3C309.1 168.1 309.8 173.1 308.8 177.6C307.8 182.1 311.3 187.1 311.3 187.1" stroke="#0A4971" stroke-miterlimit="10"/>
<path d="M301.7 134.6C301.7 134.6 283.5 133.8 283.4 120.5C283.3 107.2 297.5 106.1 303 112.6C308 118.5 306.9 129.4 306.9 129.4L301.7 134.6Z" fill="#0F528C"/>
<path d="M300 134C299.8 134.1 299.6 134 299.5 134C293.1 130.9 286.4 136.9 286.4 136.9C286.1 137.2 285.6 137.2 285.3 136.9C285 136.6 285 136.1 285.3 135.8C285.6 135.5 292.8 129.1 300.1 132.6C300.5 132.8 300.6 133.2 300.4 133.6C300.3 133.8 300.2 133.9 300 134Z" fill="#0F528C"/>
<path d="M288 142.8C287.8 142.8 287.6 142.8 287.5 142.8C287.1 142.6 287 142.2 287.1 141.8C287.3 141.4 291.4 132.6 299.5 133.1C299.9 133.1 300.2 133.5 300.2 133.9C300.2 134.3 299.8 134.6 299.4 134.6C292.3 134.2 288.5 142.4 288.5 142.5C288.4 142.6 288.2 142.8 288 142.8Z" fill="#0F528C"/>
<path d="M356.6 128C356.6 128 366 140.8 366.4 149.4C366.8 158 367.9 159.9 372 165.5C376.1 171.1 377.3 176.4 373.1 182.8" stroke="#0A4971" stroke-miterlimit="10"/>
<path d="M286.5 118.6C286.5 118.6 285.9 125.2 290.8 128.7C295.7 132.3 299.2 131.1 299.2 131.1" stroke="#0A4971" stroke-miterlimit="10"/>
<path d="M291.3 120.4C291.3 120.4 291.2 123.2 294.7 126.3C298.2 129.4 301.3 128.9 301.3 128.9" stroke="#0A4971" stroke-miterlimit="10"/>
<path d="M411.3 141C407.6 141.5 404.3 142.5 404.3 142.5C404.3 142.5 404 156.8 403.3 166.3C402.5 175.8 405.1 190.8 405.1 190.8C405.1 190.8 388.8 197.6 380.6 200.3C374.3 202.4 366.8 202.3 362.1 209.2C357.4 216.1 362.6 241.6 374.1 239.8C385.6 238.1 392.6 233 405.1 224.8C419 215.7 423.9 209.7 427.8 203.2C431.7 196.7 429.9 176.8 427.4 166C425.8 159.3 419.6 140.2 419.6 140.2C419.6 140.2 415 140.5 411.3 141Z" fill="#F9CBBA"/>
<path d="M405.9 145.9C409.9 147.3 417.9 143.8 419.8 142.3C421.8 140.7 422.4 137.5 423.1 135.2C423.8 132.9 423.1 125.6 423 122.3C422.9 118.9 421 110.2 419.5 105.1C418 99.6 413.5 100.3 414.2 104.2C414.8 107.7 415.2 114.4 415.2 114.4C415.2 114.4 412.6 110.8 410.3 110.8C408 110.8 406.7 112.5 406.7 112.5C406.7 112.5 405.9 110.2 403.3 110.7C400.7 111.2 400.8 114.3 400.8 114.3C400.8 114.3 395.8 100.5 393 98C390.2 95.5 387.6 97.5 389.2 101.3C390.8 105.1 391.8 108.2 393.1 112.3C395 118.4 395.7 124.5 395.7 124.5C395.7 124.5 390.8 119.8 388.8 119.4C386.8 119 382.8 119 382.6 121.4C382.3 123.8 389.3 128.2 390.2 129.3C391.9 131.2 393.4 133.4 396.7 139.1C398.2 141.4 401.9 144.5 405.9 145.9Z" fill="#F9CBBA"/>
<path d="M373.3 259C373.3 253.1 375.8 239.9 376.4 233.6C376.9 227.1 377.4 220.2 376.1 213.8C374.8 207.2 371.2 204.2 367 202.7C362.8 201.2 341.5 200.9 335.1 202.1C325.8 203.8 306.5 205.2 302.8 212.7C299.1 220.1 302.8 247.7 304 262.7C304.8 273 301.6 296.3 301.6 296.3C301.6 296.3 320.9 304.2 346.9 299.7C372.9 295.2 380.4 287.7 380.4 287.7C380.4 287.7 373.3 264.9 373.3 259Z" fill="#2596BE"/>
<path opacity="0.5" d="M363 236.4C363 236.4 352.9 245.4 348.4 255.9C343.9 266.4 338.6 280.7 338.6 280.7" stroke="#0E538C" stroke-miterlimit="10"/>
<path d="M345.6 422C317.6 422.8 297.5 413.9 297.5 413.9C297.5 413.9 297.4 376.6 298.1 358.3C298.6 345.7 304.1 319.7 304.1 319.7C304.1 319.7 304.1 316.4 304.3 315.2C304.6 313.5 304.9 311.8 304.9 311.8C304.9 311.8 317.7 313.7 344 311C370.3 308.4 378.6 301.5 378.6 301.5C378.6 301.5 379.7 302.4 381 304.1C382.3 305.8 383.1 308 383.1 308C383.1 308 389.9 312.8 394.4 324C399 335.1 399.8 353.3 399.8 364.8C399.8 376.3 399 412.1 399 412.1C399 412.1 375.8 421.2 345.6 422Z" fill="#FFBE58"/>
<path d="M304 319.6C304 319.6 329.3 323.3 348.2 320.3C367.2 317.3 382.6 307.6 382.6 307.6" stroke="#EAA542" stroke-miterlimit="10"/>
<path d="M344.4 414.1C344.4 414.1 353.1 390.2 361.6 382.2C370.2 374.2 373.4 351.8 373.4 351.8" stroke="#EAA542" stroke-miterlimit="10"/>
<path d="M199.2 194.7C194 186.9 180.6 173.3 180.6 173.3C180.6 173.3 180.9 158.2 180.2 146C179.5 133.7 178.2 120.4 175.8 113.5C179.1 112 182.1 108.2 183.5 106.3C185.4 103.8 186.7 99.2 187.3 95.2C187.9 91.2 184.5 90 184.8 88.3C185 86.6 190.5 73.6 191.9 69.8C193.3 66 189.3 63.7 186.8 65.7C184.4 67.7 178.2 82.9 178.2 82.9C178.2 82.9 179.4 68.3 178.8 64.9C178.2 61.5 175.7 60.4 173.4 62.3C171.1 64.2 170.8 83.2 170.8 83.2C170.8 83.2 168.6 81.1 165.7 82.7C162.7 84.3 162.8 86.2 162.8 86.2C162.8 86.2 161.4 84.9 158.8 88.6C156.2 92.3 158.2 107.8 161.4 111C162 111.6 162.6 112 163.2 112.4C162.2 113.7 161.2 115.4 160.5 117.5C158.3 123.6 155.3 134.3 153.2 145.7C150.9 157.9 151.5 174.4 152.8 182.2C154.1 190 170.2 215.5 179.8 225.5C189 235.1 202.7 239.3 209.2 232C218.4 221.3 204.4 202.5 199.2 194.7Z" fill="#F9CBBA"/>
<path d="M200.5 261.3C200.5 261.3 204.5 247 207.7 239.1C211.6 229.3 222.1 218.2 222.1 218.2C222.1 218.2 219.8 214.2 214.9 207.8C211.7 203.6 202.3 192.7 200.1 190.6C195.1 185.8 189.2 193.6 184 205.4C179.5 215.6 179 235.2 179 235.2C179 235.2 182.8 243.6 189.3 250.9C192.9 255.2 200.5 261.3 200.5 261.3Z" fill="#0E538E"/>
<path d="M147.7 427C132.5 427.4 115 425.9 115 425.9C115 425.9 98.7 426.6 85.6 425.9C72.5 425.2 60.8 420.7 60.8 420.7C60.8 420.7 60.8 402.4 60.1 394.6C59.4 386.8 56.2 377 56.2 362.6C56.2 348.2 59.5 334.3 61.9 327.6C64.3 320.9 167.1 319.2 170.5 330.5C171.1 332.5 173.5 345.1 174.4 356.7C175.1 366.4 174.4 375.6 174.4 375.6L179.6 417.4C179.6 417.4 163.9 426.5 147.7 427Z" fill="#EAA542"/>
<path d="M126.5 356.6L128.8 385.6C128.8 385.6 144.3 395.7 152.3 393.3C160.3 390.9 169.1 378.7 169.1 378.7L165.8 350.8C165.8 350.8 154 353.1 144.3 354.8C136.3 356.3 126.5 356.6 126.5 356.6Z" fill="#D38D2F"/>
<path d="M63.1 357.3L65.9 386.4C65.9 386.4 77.8 398.9 86 397.9C94.2 396.9 103.8 386.2 103.8 386.2L102.7 358C102.7 358 90.8 358.3 80.9 358.5C72.9 358.6 63.1 357.3 63.1 357.3Z" fill="#D38D2F"/>
<path d="M109.7 356.6C109.7 356.6 109 378.8 114.9 395.8C119 407.8 117.5 419.3 118.2 425.2" stroke="#D38D2F" stroke-miterlimit="10"/>
<path d="M92.1 410.8C106.5 410.8 112.5 400.4 117.6 401.7C122.8 403 133.9 411.5 149.6 408.2" stroke="#D38D2F" stroke-miterlimit="10"/>
<path d="M94.9 172.2L98.1 148.5L130 150.3L135.1 175.9C135.1 175.9 129.7 193.8 110.4 189.6C91.2 185.6 93.9 172.3 94.9 172.2Z" fill="#B76B2F"/>
<path d="M148 123.5C147 120.4 139.7 119.6 139.7 119.6L135.2 139.8C135.2 139.8 140.9 139.1 143.6 136.2C146.2 133.4 149.2 127.4 148 123.5Z" fill="#B76B2F"/>
<path d="M85.5 120.7C85.5 120.7 77.8 117.1 75.9 121.9C74.2 126.2 75.7 131 78.8 134.3C81.2 136.8 88.5 138.9 88.5 138.9L85.5 120.7Z" fill="#B76B2F"/>
<path d="M147.9 98.8C146.7 98.4 143.7 97.4 143.7 97.4C143.7 97.4 149.8 92 150.5 89.7C151.3 87.4 149.5 83.9 140.5 83.3C133.8 82.9 126.2 83.6 126.2 83.6C126.2 83.6 132.1 78.6 131.3 75.2C130.5 71.9 126.7 73.2 119.6 75.6C110.2 78.8 101.6 80 101.6 80C101.6 80 87.3 82.5 84.2 88.4C81.1 94.3 83.1 99.6 83.1 99.6C83.1 99.6 78.1 105.1 78.9 111.7C79.7 118.3 80.1 124.2 83 131.7C85.9 139.1 88.9 143.9 91.6 146.5C94.2 149.1 97.3 158.3 97.3 158.3C97.3 158.3 104.7 159 114.3 159C123.9 159 130.4 154.6 130.4 154.6C130.4 154.6 133.4 146.1 134.7 143.8C136 141.5 140.2 131.8 141.4 127.8C142.6 123.7 143.5 115.7 144.7 113.9C145.9 112.2 147.7 110.7 149.1 109.5C150.5 108.3 152.9 106.2 152.8 103.7C152.8 100.6 150.2 99.6 147.9 98.8Z" fill="#1E0F00"/>
<path d="M90.7 98.7C90.7 98.7 86.2 87.9 98.1 86.9C113.8 85.6 123.8 83 123.8 83" fill="#1E0F00"/>
<path d="M94.2 100C94.2 100 95.5 93 107.3 95.2C119.1 97.4 138.6 97.4 138.6 97.4" fill="#1E0F00"/>
<path d="M99 101.3C99 101.3 105.1 103.5 116.8 106.1C128.6 108.7 136 105.7 136 105.7" fill="#1E0F00"/>
<path d="M90.3 104.3C90.3 104.3 82.9 109.5 85.5 120.6C88.1 131.7 93.3 138.7 93.3 138.7" fill="#1E0F00"/>
<path d="M93.8 107C93.8 107 88.6 116.1 94.2 125.3L93.8 107Z" fill="#1E0F00"/>
<path d="M133.8 169.2C133.8 169.2 171.7 173.3 176.9 187.1C182.1 200.8 177.6 227.8 174.9 236.5C172.2 245.2 170.6 276.6 170.9 291.7C171.2 303.4 176 340.6 175.4 348.9C174.9 357.2 173.6 366.4 158.5 367.7C143.5 369 123.2 363.1 117.4 359.9C111.5 356.6 99.1 354.2 90.6 352.7C85.1 351.8 80.5 353 70 352.4C59.6 351.7 55.3 349.7 54.3 348.5C52.8 346.6 53.3 285.6 53 274.5C52.7 263.4 44.2 218.3 46 201.6C47 192.4 49.3 181.1 55.2 176.4C63.4 170 94.8 169 94.8 169C94.8 169 101.1 172.1 111.8 172.1C122.9 172.1 133.8 169.2 133.8 169.2Z" fill="#FFBE58"/>
<path d="M260.6 252.8C256.7 268.5 228.5 277 220.4 278.4C212.3 279.8 201.2 270.2 193 263C184.8 255.8 171.7 242.6 171.7 242.6L192.2 204C192.2 204 200.8 212 208.7 220.5C216.7 229 228 241.3 228 241.3C228 241.3 264.5 237.1 260.6 252.8Z" fill="#B76B2F"/>
<path d="M181.1 256.3C177.4 258.2 169.2 246.9 162.1 245.8C155 244.7 142.7 239.6 142.7 239.6C142.7 239.6 148.5 173.3 160.6 175.9C176.7 179.4 201.2 206.5 204 212.4C206 216.6 200.2 223.4 196 232.6C191.7 241.8 184.8 254.4 181.1 256.3Z" fill="#FFBE58"/>
<path d="M85.5 176.4C79.9 168.8 67 166.1 60.1 157.5C50.7 145.6 40.8 131.8 40.8 131.8C40.8 131.8 41.8 115.6 40.5 102.9C39.2 90.2 37.2 63.7 37.2 63.7L18.6 55.5C18.6 55.5 6.79998 85.5 4.59998 101.2C2.29998 116.9 -2.60002 127 3.59998 145.6C9.79998 164.2 35.4 214.2 48.1 215.8C60.9 217.4 91.1 184.1 85.5 176.4Z" fill="#B76B2F"/>
<path d="M63.7 37.5C63.9 35.9 61.9 32.7 57.5 33.8C54.1 34.7 49.1 42.1 48.4 40.7C47.5 38.9 55.5 21.2 57.3 13.4C58.2 9.50001 54.2 6.9 51.1 11.5C48.4 15.4 43.1 29.1 42.4 29.4C41.7 29.7 47.5 9.10001 47.3 4.90001C47.1 0.700006 42.7 -0.499994 41 2.40001C39.3 5.30001 35.4 27.2 34 26.7C32.6 26.2 35.3 7.5 34.4 3.70001C33.5 -0.199995 29.6 -0.899994 27.9 3.40001C26.3 7.70001 25.4 28.1 24.1 28C22.8 27.9 23.1 16.6 21.7 11.3C20.1 5.20001 16 8.3 15.4 11.6C14.9 14.9 15.8 26.2 15.5 34C15.2 41.8 15.1 46 15.8 51.2C16.3 55.2 18.7 59.3 20.9 60.9C23.2 62.5 34.4 66.7 38.2 64.8C42 62.9 47.7 59.6 49.4 55.9C51.1 52.2 56.5 46.9 58.6 44.4C61.2 41.4 63.6 38.4 63.7 37.5Z" fill="#B76B2F"/>
<path d="M79.6 167.9C75.5 165.5 71.7 160.4 68.2 158C64 155.1 60.9 153.5 60.9 153.5C60.9 153.5 57.6 148.6 56.3 147.3C55 146 51.7 143.7 49.8 144.7C47.8 145.7 37.7 162.7 32.5 177.7C28.3 189.9 24.7 216.9 26.6 221.5C27.6 223.8 37 226.1 41 229.3C44.9 232.6 46.2 237.8 52.1 239.7C58 241.7 93.9 196.6 93.9 196.6C93.9 196.6 84.2 170.5 79.6 167.9Z" fill="#FFBE58"/>
<path d="M60.7 154.2C60.7 154.2 40.5 180.3 39.2 209.7" stroke="#EAA542" stroke-miterlimit="10"/>
<path d="M74.4 166C74.4 166 52.6 174.9 48.4 193.7" stroke="#EAA542" stroke-miterlimit="10"/>
<path d="M82.7 248.4C82.7 248.4 98.5 308.4 130.6 320.7" stroke="#EAA542" stroke-miterlimit="10"/>
<path d="M49.6 237.8C49.6 237.8 75.1 221.5 85.5 182.9" stroke="#EAA542" stroke-miterlimit="10"/>
<path d="M156.1 198C156.1 198 160 233.9 170.5 243.4" stroke="#EAA542" stroke-miterlimit="10"/>
<path d="M79.6 337.7C79.6 337.7 83.8 339.2 90.1 342.2C96.4 345.2 104.4 351.4 116.1 357.3" stroke="#EAA542" stroke-miterlimit="10"/>
<path d="M335.6 325.9C336 318.8 340.4 316.5 344.1 315.1C347.8 313.8 355.5 312 357.2 311.6C360 310.8 369.9 304.8 371.2 309.7C372.6 314.6 361.6 317.7 362.6 318.8C363.7 319.9 377.2 317.6 383.6 318.2C386.8 318.5 387.8 320 387.9 321.6C388 326.3 366.7 325.2 367.2 326.5C367.4 327.1 371.8 328.3 376.4 328.3C380.9 328.3 385.8 327.1 387.3 327.6C390.3 328.8 390.6 332.6 387.1 333.5C385.6 333.9 381.3 335.1 377 335.1C371.1 335.1 365.4 334.2 365.4 334.2C365.4 334.2 370.2 336 374.6 337.1C378.4 338 382.4 337.3 383.3 337.9C386.3 339.7 384.4 343.1 381.9 343.8C380.8 344.1 376.9 344.9 373.1 343.9C368.1 342.6 362.5 340.3 362.2 340.8C361.8 341.8 370.3 344.8 372.2 346.4C374.1 348 372.6 350.7 370 350.8C366.9 350.9 363 350 357.6 347.7C352.2 345.5 347.8 343.8 344.2 341.6C337.5 337.6 335.2 332.9 335.6 325.9Z" fill="#F9CBBA"/>
<path d="M329.9 303.8C324.8 299.4 310.2 289.7 307.9 288.2C307.6 287.1 306.3 282.2 306.3 282.2C306.3 282.2 301 285.8 295.1 287.4C289.2 289 280.4 291 280.4 291C280.4 291 285.1 306.5 289.7 310.5C294.7 314.8 306.6 323.1 313.9 326.2C325.3 331 337.4 332.3 337.4 332.3L343.4 316C343.4 316 337.5 310.4 329.9 303.8Z" fill="#F9CBBA"/>
<path d="M302.3 249.8C299 241 293.6 231.9 288.8 228.1C284 224.3 276.6 223.5 276.6 223.5C276.6 223.5 280.1 250.2 280.1 258.6C280.1 267 278.4 291.9 278.4 291.9C278.4 291.9 286.7 290.3 295.8 288.4C304.9 286.5 308.4 281 308.4 281C308.4 281 307.3 262.9 302.3 249.8Z" fill="#0E538E"/>
<path d="M305.5 209.5C300.4 209.1 289.1 220.5 284.1 235.1C279.6 248.1 272.9 257.5 272.9 257.5C272.9 257.5 256.3 268.7 250.9 273.5C243.3 280.2 237.6 285.9 237.6 285.9L243.8 302.1C243.8 302.1 255.3 298.1 266.7 293.2C274 290 286.8 282.3 290.8 279C294.8 275.7 302.6 263.6 305 258.8C307.4 254 313.4 249.1 315.4 235.5C317.5 222.1 310.7 209.9 305.5 209.5Z" fill="#F9CBBA"/>
<path d="M245 294.1C244.5 286.9 240 284.5 236.3 283.2C232.6 281.9 224.7 280.2 223.1 279.8C220.3 279.1 210.2 273 208.9 278C207.6 283.1 218.7 286 217.7 287.2C216.7 288.3 207.7 287.4 204.5 285.7C201.2 284.1 200.3 287 200.6 289.3C200.9 291.6 203.2 293.5 205.5 294.5C207.8 295.5 213.6 294.3 213.3 295C213.1 295.7 211.7 296.1 208.1 296.4C204.5 296.7 203.2 294.4 201.4 295.5C199.6 296.7 199.3 301.7 202.9 302.6C204.4 303 206.2 303.3 208.5 303.3C210.8 303.3 215.4 302.9 215.4 302.9C215.4 302.9 211.7 304.4 208.6 305.2C205.5 306 201.4 303.3 200.7 305.9C200 308.5 201.4 311.5 203.6 312.1C205.9 312.8 209.2 312.4 211.1 312.1C213.1 311.8 218.3 309 218.6 309.6C219.1 310.6 210.5 313.7 208.6 315.4C206.7 317.1 208.2 319.7 210.8 319.8C213.9 319.9 217.8 318.9 223.3 316.5C228.7 314.2 234.1 310.2 237.7 307.9C244.2 303.9 245.4 301.3 245 294.1Z" fill="#F9CBBA"/>
<path d="M518.3 354.7C518.3 340.1 512 322.8 512 322.8C512 322.8 411.2 315.4 408.3 326.3C407.3 330.1 405.7 346.6 404.9 363.3C404.1 380 408.1 416.4 408.1 416.4C408.1 416.4 421.3 418.5 436.6 419.7C451.9 420.9 463.2 415.3 467.7 415.7C470.5 416 479.6 417.4 491.2 417.1C498.1 416.9 517.2 413.1 517.2 413.1C517.2 413.1 516.8 401.6 516.6 387.9C516.1 373.1 518.3 369.3 518.3 354.7Z" fill="#0E538E"/>
<g opacity="0.2">
<path opacity="0.2" d="M447.5 356.8C438.6 356 427.8 354.9 427.8 354.9L424.3 380.3C424.3 380.3 434.3 392.9 441.6 394.4C448.9 395.9 461.1 383.3 461.1 383.3L463.7 357C463.8 357 454.8 357.4 447.5 356.8Z" fill="#1E0F00"/>
<path opacity="0.2" d="M515.2 350.3L513 376.6C513 376.6 504.1 390 498.4 390.4C493.9 390.7 482.7 381.2 482.7 381.2L485.1 358.1C485.1 358.1 494.1 355.9 500.1 354.6C506.1 353.4 515.2 350.3 515.2 350.3Z" fill="#1E0F00"/>
</g>
<path opacity="0.2" d="M476.9 369.9C476.9 369.9 475.6 385.6 472.1 391.2C468.6 396.9 467.5 414.4 467.5 414.4" stroke="#1E0F00" stroke-miterlimit="10"/>
<path opacity="0.2" d="M446.4 404.7C446.4 404.7 455.5 405.1 459.5 403.8C463.4 402.5 468.2 399 470.4 399C472.6 399 480.8 405.5 493.9 403.8" stroke="#1E0F00" stroke-miterlimit="10"/>
<path d="M571.2 117.3C570.2 101.3 562.4 83.6 562.4 83.6C562.4 83.6 563.1 77.3 563 73.5C562.9 67.1 557.7 55.8 556.1 53.4C554.6 51 549.9 47.1 548.1 47.4C546.3 47.7 546.1 48.9 546.1 48.9C546.1 48.9 542.3 46.2 539.9 47.4C537.7 48.4 536.8 51.2 536.8 51.2C536.8 51.2 534.3 49.5 532.4 50.5C529.9 51.9 529.6 55.6 529.6 55.6C529.6 55.6 527.5 55.3 526 56.2C524.5 57.1 523 60 523.3 61.5C523.6 63 524.4 64.8 524.4 64.8C524.4 64.8 523.5 68.6 524.2 70.8C524.9 73 524.2 75.3 524.9 77C527.1 83 532.2 84.3 534.6 87.4C537 90.5 544.3 91.6 544.3 91.6C544.3 91.6 543.8 106.7 543 113.7C541.7 124.3 540.1 140.3 540.1 140.3C540.1 140.3 533.6 147.5 530 152.5C526.4 157.5 522.6 163.8 517.5 167.9C507.7 175.9 493 176.6 497.4 196.7C499.7 207.1 510.1 217.9 520.6 217.7C531.1 217.5 547.1 196.5 552 189.4C556.9 182.3 565.3 163.3 567.5 156.7C569.8 150.1 572 131.3 571.2 117.3Z" fill="#CC6947"/>
<path d="M530.2 55.6C530.2 55.6 535.7 56.7 537.1 61.8" stroke="#B26F1F" stroke-miterlimit="10"/>
<path d="M536.9 50.7C536.9 50.7 543.5 53.8 543.8 57.8" stroke="#B26F1F" stroke-miterlimit="10"/>
<path d="M546.6 48.7C546.6 48.7 552.1 52.2 552.8 56.4" stroke="#B26F1F" stroke-miterlimit="10"/>
<path d="M535.5 72.6C535.5 72.6 534 71.1 531.3 69.3" stroke="#B26F1F" stroke-miterlimit="10"/>
<path d="M532.4 72.6C532.2 70.8 531.7 69.7 531.1 68.4C530.4 67.1 529.7 65.3 528.9 64.4C528 63.5 526.9 63.5 526 64C525.1 64.4 524.5 65.8 524.5 65.8" stroke="#B26F1F" stroke-miterlimit="10"/>
<path d="M475.2 184.8C477.2 179.5 488.4 177.8 494.1 176.7C499.8 175.5 502.7 173 506.4 171.5C509 170.4 513.7 163.6 519.7 164.3C525.7 165 534.3 174.3 535.6 186.9C536.9 199.5 537.6 209.5 535.6 216.8C533.6 224.1 529.6 230.1 520.3 230.1C510.5 230.1 492.6 237.8 492.6 237.8C492.6 237.8 473.2 190.1 475.2 184.8Z" fill="#EAA542"/>
<path d="M477.3 159.5C477.3 159.5 483.4 158.6 484.9 156.7C487.8 153 489 145.4 486.8 141.2C484.4 136.5 477 140.8 477 140.8C477 140.8 437.8 115 432.3 117.4C426.7 119.9 426.3 127.5 426.4 130.9C426.5 134.2 428 139.2 428 139.2C428 139.2 424.9 138.4 423.7 140.4C422.5 142.4 423.4 146.5 423.9 148.4C424.7 151.3 425.7 156.5 427.6 157.6C429.5 158.7 430.8 158 430.8 158C430.8 158 433.1 168.9 434.6 172.5C436 176.1 440.3 175.3 440.3 175.3L440.8 192.9L477.6 191.8C477.7 190 472.3 168.4 472.3 168.4L477.3 159.5Z" fill="#CC6947"/>
<path d="M481.9 113.2C481.9 113.2 483.4 107.7 479.8 102C476.1 96.4 461.4 95.1 461.4 95.1L445.5 92.9C445.5 92.9 441.9 90.1 437.2 91C432.5 92 434.2 97.2 434.2 97.2C434.2 97.2 429.5 96.9 428.1 99.4C427.2 101 427.4 104.3 428.3 107.1C426.3 108 424.7 110.3 424.6 112.9C424.5 115.7 425.4 119.3 427.3 121.3C427.3 121.3 425.7 128.8 426 132.3C426.7 139.7 432.4 149.1 435 154.9C437.5 160.7 438.8 160.8 441.9 163.7C445 166.6 446.1 168.5 447.2 173.5C448.3 178.5 458.2 176.5 464.5 175.6C470.8 174.7 473.1 174 473.7 172.7C474.3 171.4 475.2 164.3 477.6 161.4C480 158.5 482.6 153.4 484.9 145.6C487.2 137.8 487 131.8 487.2 125C487.5 118.3 481.9 113.2 481.9 113.2Z" fill="#1E0F00"/>
<path d="M472.1 123.9C472.1 123.9 473.8 130.9 471.7 140C469.5 149.1 468.2 159.6 468.2 159.6" fill="#1E0F00"/>
<path d="M476.9 118.7C476.9 118.7 483.9 124.8 480.8 136.1C477.8 147.4 473.8 156.6 473.8 156.6" fill="#1E0F00"/>
<path d="M438.2 118.3C438.2 118.3 445.6 120.5 453.4 118.3C461.2 116.1 467.8 117.4 467.8 117.4" fill="#1E0F00"/>
<path d="M436 102.2C436 102.2 450.4 107.4 458.2 106.6C466 105.7 471.7 115.3 471.7 115.3" fill="#1E0F00"/>
<path d="M442.1 94.3C442.1 94.3 447.8 97.3 456.5 98.2C465.2 99.1 474.4 100.4 476.5 106C478.7 111.7 476.9 114.3 476.9 114.3" fill="#1E0F00"/>
<path d="M287.3 224.6C288.6 225.9 291.8 223.2 295.6 223.6C298.7 223.9 302.3 230.2 306.3 231.9C310.3 233.6 315.5 235.2 315.5 235.2C315.5 235.2 326.8 256.5 332 263.1C339.3 272.2 349.9 280.3 356.5 280.7C363.1 281 379.5 274 390.5 266.4C401.6 258.9 413.9 246 413.9 246L401.5 214.1C401.5 214.1 390.9 221.2 382.5 227.8C374.4 234.2 362.6 247.3 362.6 247.3C362.6 247.3 352.7 239.3 347.1 234.7C341.5 230 330.7 225.2 330.7 225.2C330.7 225.2 329.2 216.8 328.9 214.4C328.7 212 327.1 208 325.1 205.1C323.1 202.2 318.9 201.3 316.5 203.1C315.1 204.1 317.7 205.4 318.6 207.3C319.2 208.6 319.3 210 319.3 210C319.3 210 315.2 204.5 311.5 203.5C309.1 202.8 306.3 202 304.3 203.7C303.2 204.6 303.1 206.2 303.1 206.2C303.1 206.2 299.1 206.8 298.2 208.3C297.4 209.8 297.4 211 297.4 211C297.4 211 294.6 211.1 293.5 212.6C292.4 214.1 291.7 217.3 291.7 217.3C291.7 217.3 289 217.9 287.7 219.4C285.8 221.6 286 223.4 287.3 224.6Z" fill="#CC6947"/>
<path d="M292.6 217.1C292.6 217.1 298.8 214.4 304.2 220.4" stroke="#B26F1F" stroke-miterlimit="10"/>
<path d="M297.9 210.8C297.9 210.8 303.3 210.2 305.8 213.3" stroke="#B26F1F" stroke-miterlimit="10"/>
<path d="M303.6 206C303.6 206 307.6 205.6 310.2 208.7" stroke="#B26F1F" stroke-miterlimit="10"/>
<path d="M435.7 186.1C435.7 186.1 408.5 188.8 400.6 200.7C392.7 212.6 400.4 240.3 403.1 248.8C405.8 257.3 405.6 288.7 405.4 303.5C405.3 314.8 398.7 344 401.4 348.7C404.1 353.5 442.8 362.8 454.6 363.3C482.1 364.3 515.3 354.2 519.6 348.6C523.9 343 511.8 297.8 512 287.1C512.2 276.3 512.2 223.2 510.2 207C508.3 190.8 503 178.9 477 183.5C462.7 186 435.7 186.1 435.7 186.1Z" fill="#EAA542"/>
<path d="M410.7 195.2C410.7 195.2 404.4 196.6 400.9 199.4C395.3 203.8 389.6 210.8 386.3 215.7C380.2 224.7 371.8 230 371.8 230C371.8 230 373.4 241.1 379.4 252.4C385.3 263.8 393.8 269.4 393.8 269.4C393.8 269.4 409.9 263.6 416.1 253.3C422.8 242.1 425.2 228.2 425.2 228.2L410.7 195.2Z" fill="#EAA542"/>
<path d="M488.7 186.2C488.7 186.2 501.3 193.6 505.2 205.4C509.1 217.2 509.6 229.3 509.6 229.3" stroke="#D6903C" stroke-miterlimit="10"/>
<path d="M502.6 176.2C502.6 176.2 516.5 172.7 523.1 184" stroke="#D6903C" stroke-miterlimit="10"/>
<path d="M499.5 177.1C499.5 177.1 512.6 176.7 519.1 191.9" stroke="#D6903C" stroke-miterlimit="10"/>
<path d="M430.3 215.4C430.3 215.4 431.6 229.8 427.3 238.9C422.9 248 406.8 262.4 406.8 262.4" stroke="#D6903C" stroke-miterlimit="10"/>
<path d="M482.6 242.8C482.6 242.8 470.4 263.3 466.9 281.5C463.4 299.8 454.3 332.4 454.3 332.4" stroke="#D6903C" stroke-miterlimit="10"/>
<path d="M291.9 219.8C289.3 214.6 282.8 209.4 281.8 206.1C280.8 202.8 283.1 196.6 281.8 188.5C280.5 180.3 276.6 174.8 275.9 172.2C275.2 169.6 273.9 158.2 272 153.6C270 149 267.4 143.8 264.8 140.2C262.2 136.6 257.9 133.3 248.5 130.7C239 128.1 229.9 134.6 229.9 134.6C229.9 134.6 221.1 132.6 215.2 138.5C209.3 144.4 206.8 150 206.1 154.9C205.4 159.7 205.1 163.7 203.8 167.3C202.5 170.9 201.3 175.7 198.3 180.9C192.9 190.3 197.4 202 198.2 207.8C199.1 213.5 192 218.6 188.7 223.8C185.4 229 187 239.1 191.8 243.2C196.6 247.3 202.4 244.7 204.4 247.9C206.4 251.2 210.6 263.2 222 265.2C233.4 267.2 238 259 242.6 259.6C247.2 260.3 251.1 267.4 262.2 263.2C273.3 259 271.6 248.6 274.9 245.9C278.2 243.2 283.5 244.3 289 240.8C294.5 237.5 294.5 225.1 291.9 219.8Z" fill="#0F528C"/>
<path d="M262.7 148.1C262.7 148.1 270.1 161.2 269.2 170.7C268.3 180.3 270.9 186.8 273.1 193.3C275.3 199.8 271.8 209.8 276.1 214.6C280.5 219.4 283.9 231.1 281.8 235.9" stroke="#0A4971" stroke-miterlimit="10"/>
<path d="M277.5 192.5C277.5 192.5 279.2 199.9 278.4 205.6C277.5 211.3 281.9 213 284.9 218.2C287.9 223.4 288.8 231.3 287.5 233.4" stroke="#0A4971" stroke-miterlimit="10"/>
<path d="M206.1 181.6C206.1 181.6 201.3 189.4 203.9 196C206.5 202.5 208.3 215.2 204.3 219.1C200.4 223 190.8 229.5 194.7 236.5" stroke="#0A4971" stroke-miterlimit="10"/>
<path d="M210.5 218.2C210.5 218.2 204.4 228.2 207.9 234.3C211.4 240.4 212.7 242.1 212.7 248.2C212.7 254.3 217.1 258.2 217.1 258.2" stroke="#0A4971" stroke-miterlimit="10"/>
<path d="M229.6 139C229.6 139 217 155.5 223.1 168.2C229.2 180.8 227 187.4 225.3 195.2C223.6 203 221.8 210.9 224.9 218.7C227.9 226.5 228.4 231.3 226.6 240C224.9 248.7 227.9 254.4 231.4 257.8" stroke="#0A4971" stroke-miterlimit="10"/>
<path d="M227.5 153.3C227.5 153.3 224.9 162.4 230.5 174.6C236.2 186.8 235.3 197.7 233.5 202.9C231.8 208.1 232.6 212.9 236.5 219C240.4 225.1 240.9 231.6 238.2 239C235.6 246.4 237.3 250.3 240.8 253.4" stroke="#0A4971" stroke-miterlimit="10"/>
<path d="M261.4 138.5C261.4 138.5 275.3 149.8 277.9 160.3C280.5 170.7 273.5 174.7 277.5 182.5C281.4 190.3 285.8 194.7 284.9 203.4C284 212.1 286.2 213 290.1 219.9C294 226.9 297.5 229 295.3 237.7" stroke="#0A4971" stroke-miterlimit="10"/>
<path d="M217 142.9C217 142.9 201.8 150.7 201.8 162.1C201.8 173.4 205.3 174.7 203.1 184.7C200.9 194.7 194.8 197.8 193.1 205.2C191.4 212.6 195.3 223.9 192.7 227.8C190.1 231.7 184 242.2 192.3 248.7" stroke="#0A4971" stroke-miterlimit="10"/>
</svg>
