<svg width="774" height="496" viewBox="0 0 774 496" fill="none" xmlns="http://www.w3.org/2000/svg">
<path opacity="0.31" d="M746 453.11C744.49 453.13 735.2 440.71 733.42 438.99C718.87 424.91 710.14 409.44 703.58 392.61C698.58 379.78 694.85 366.15 690.78 351.77C688.03 342.07 683.6 331.23 674 328.17C664.66 325.2 654.6 331.36 648.86 339.3C643.11 347.24 640.22 356.87 635.31 365.35C626.4 380.72 610.63 387.16 597.59 373.65C578.97 354.35 570.58 328.03 558.77 304.49C550.2 287.4 543.02 267.39 532.22 251.63C515.75 227.61 493.16 207.12 463.13 207.12C444.09 210 427.32 226.87 415.96 247.94C404.61 269.01 397.98 294.08 392.34 319.08C387.61 340.05 383.46 361.25 379.62 382.56C372.48 356.88 365.05 331.39 357.01 306.34C348.3 279.21 338.68 252.18 325.32 230.47C311.96 208.76 294.27 192.75 276.51 192.86C249.14 198.16 231.48 225.18 219.9 255.12C212.31 274.75 208.63 298.53 203.25 319.27C195.85 347.84 191.97 378.92 177.75 403.93C167.8 421.43 152.5 416.97 142.19 401.24C136.5 392.56 132.49 382.24 126.12 374.32C119.75 366.4 109.7 361.24 101.62 366.23C93.31 371.36 90.82 384.35 89.7 395.74C88.04 412.65 86.59 428.63 83.86 443.95C83.27 447.29 82.61 450.59 81.88 453.86H367.64C367.44 455.08 367.24 456.31 367.05 457.53C367.05 457.53 746 453.11 746 453.11Z" fill="#DCE6EF"/>
<path opacity="0.77" d="M631.66 414.27C630.92 429 614.89 454.75 600.16 454.01C585.43 453.27 577.57 426.31 578.32 411.58C579.06 396.85 594.75 323.13 609.48 323.88C624.2 324.62 632.4 399.54 631.66 414.27Z" fill="#FFBE55"/>
<path d="M601.34 453.22C601.33 453.22 601.32 453.22 601.32 453.22C601.11 453.21 600.94 453.02 600.96 452.81L608.39 333.43C608.4 333.22 608.57 333.04 608.8 333.07C609.01 333.08 609.18 333.27 609.16 333.48L601.73 452.86C601.71 453.06 601.54 453.22 601.34 453.22Z" fill="#0B4870"/>
<path opacity="0.77" d="M597.94 411.2C594.59 418.57 592.03 426.3 590.49 434.36C589.71 438.44 589.21 442.87 591.06 446.6C593.08 450.67 597.56 453.04 602.04 453.78C612.99 455.58 623.94 448.87 630.36 439.82C636.78 430.77 639.56 419.7 642.11 408.91C644.12 400.41 646.09 391.78 649.88 383.86C651.5 380.46 661.01 367.35 656.51 363.95C650.36 359.12 632.56 364.37 621.16 376.83C611.76 387.07 603.68 398.6 597.94 411.2Z" fill="#FFBE55"/>
<path d="M602.04 454.16C602.01 454.16 601.98 454.16 601.94 454.15C601.73 454.1 601.61 453.88 601.66 453.68C601.79 453.16 615.28 401.77 646.91 372.51C647.07 372.37 647.31 372.37 647.46 372.53C647.61 372.69 647.6 372.93 647.44 373.08C615.97 402.18 602.55 453.36 602.42 453.87C602.38 454.05 602.22 454.16 602.04 454.16Z" fill="#0B4870"/>
<path opacity="0.77" d="M675.37 399.07C674.24 401.1 672.12 402.48 670.19 403.56C667.82 404.9 665.29 406.07 662.84 407.21C659.7 408.67 656.46 410.18 653.46 412.06C651.28 413.43 649.34 414.98 647.71 416.64C650.28 410.8 653.29 405.7 656.83 401.14C661.49 395.14 666.27 392.1 671.06 392.1C671.17 392.1 671.28 392.1 671.39 392.11C672.87 392.15 674.02 392.52 674.81 393.2C676.44 394.59 676.37 397.27 675.37 399.07Z" fill="#FFBE55"/>
<path opacity="0.77" d="M680.71 432.34C678.82 433.69 676.31 434.03 674.11 434.19C671.39 434.38 668.6 434.36 665.91 434.35C662.45 434.33 658.87 434.3 655.36 434.72C652.8 435.03 650.38 435.6 648.2 436.4C653.02 432.22 657.92 428.89 663.07 426.29C669.85 422.86 675.47 422.16 679.8 424.21C679.9 424.26 680 424.31 680.1 424.36C681.42 425.03 682.3 425.85 682.73 426.81C683.59 428.75 682.38 431.15 680.71 432.34Z" fill="#FFBE55"/>
<path opacity="0.77" d="M668.11 448.72C666.54 448.5 665.13 447.5 663.96 446.54C662.52 445.36 661.14 444.05 659.81 442.77C658.1 441.14 656.33 439.45 654.39 438.01C652.97 436.96 651.5 436.11 650.04 435.49C654.4 435.67 658.39 436.31 662.18 437.43C667.16 438.9 670.28 441.19 671.47 444.23C671.5 444.3 671.52 444.37 671.55 444.44C671.89 445.39 671.94 446.21 671.71 446.89C671.23 448.28 669.5 448.91 668.11 448.72Z" fill="#FFBE55"/>
<path d="M632.27 454.46C632.07 454.44 631.88 454.29 631.88 454.07C631.88 453.75 632.47 422.07 670.65 395.52C670.83 395.4 671.07 395.44 671.19 395.62C671.31 395.8 671.27 396.04 671.09 396.16C633.24 422.48 632.65 453.76 632.65 454.07C632.66 454.28 632.49 454.46 632.27 454.46Z" fill="#0B4870"/>
<path d="M632.27 454.46C632.21 454.46 632.16 454.45 632.1 454.42C631.9 454.33 631.82 454.1 631.91 453.9C632.03 453.65 644.19 428.38 676.08 428.38C676.3 428.38 676.47 428.55 676.47 428.77C676.47 428.99 676.3 429.16 676.08 429.16C644.7 429.16 632.73 453.98 632.62 454.23C632.56 454.37 632.42 454.46 632.27 454.46Z" fill="#0B4870"/>
<path d="M668.83 445.51C668.75 445.51 668.67 445.48 668.6 445.43C655.98 435.91 649.77 436.19 649.72 436.2C649.5 436.22 649.32 436.05 649.3 435.84C649.29 435.63 649.45 435.44 649.66 435.42C649.92 435.39 656.15 435.07 669.07 444.81C669.24 444.94 669.28 445.18 669.15 445.36C669.07 445.45 668.95 445.51 668.83 445.51Z" fill="#0B4870"/>
<path d="M180.35 407.96C174.8 401.55 167.77 396.03 165.55 387.94C163.93 382.03 165.21 375.78 165.84 369.69C166.47 363.6 166.25 356.86 162.31 352.18C159.06 348.32 153.93 346.64 149 345.58C144.07 344.52 138.92 343.85 134.54 341.34C127.43 337.26 128.85 330.33 125.03 324.25C120.75 317.43 110.78 308.72 102.24 313.25C93.2 318.05 94.6299 332.62 100.64 339.05C104.63 343.32 109.74 347.41 110.33 353.23C111.21 361.98 101.19 369.86 103.94 378.22C105.98 384.39 113.75 386.51 117.6 391.75C121.4 396.94 120.63 404.2 118.4 410.23C116.16 416.26 112.64 421.83 111.25 428.1C108.4 440.94 118.48 449.81 129.96 452.68C140.51 455.31 163.26 454.07 163.26 454.07C171.38 451.23 180.38 444.1 184.85 436.3C188.22 430.41 188.69 422.95 186.08 416.68C184.73 413.46 182.67 410.63 180.35 407.96Z" fill="#FFBE55"/>
<path d="M155.43 454.13C155.23 454.13 155.05 453.97 155.04 453.76C150.87 387.99 112.42 327.91 112.03 327.31C111.91 327.13 111.96 326.89 112.15 326.77C112.33 326.65 112.57 326.7 112.69 326.89C113.08 327.49 151.64 387.75 155.83 453.71C155.84 453.92 155.68 454.11 155.47 454.12C155.45 454.13 155.44 454.13 155.43 454.13Z" fill="#0B4870"/>
<path d="M77.76 408.04C78.36 407.53 79.23 407.25 80.35 407.22C80.43 407.22 80.52 407.22 80.6 407.22C84.21 407.22 87.83 409.52 91.36 414.05C94.04 417.5 96.31 421.36 98.25 425.77C97.02 424.51 95.55 423.34 93.9 422.31C91.64 420.89 89.18 419.75 86.81 418.64C84.96 417.78 83.05 416.89 81.26 415.88C79.8 415.06 78.2 414.01 77.34 412.48C76.58 411.12 76.53 409.09 77.76 408.04Z" fill="#FFBE55"/>
<path d="M71.78 433.45C72.1 432.73 72.77 432.11 73.77 431.6C73.84 431.56 73.92 431.53 73.99 431.49C77.26 429.94 81.51 430.47 86.64 433.06C90.54 435.03 94.24 437.55 97.89 440.71C96.24 440.1 94.41 439.67 92.48 439.44C89.82 439.12 87.12 439.14 84.5 439.16C82.46 439.17 80.35 439.19 78.3 439.04C76.63 438.92 74.74 438.66 73.31 437.64C72.03 436.74 71.12 434.92 71.78 433.45Z" fill="#FFBE55"/>
<path d="M80.1 448.65C79.92 448.14 79.96 447.52 80.22 446.8C80.24 446.75 80.26 446.69 80.28 446.64C81.18 444.34 83.54 442.61 87.31 441.5C90.17 440.65 93.19 440.17 96.49 440.03C95.38 440.5 94.27 441.14 93.2 441.94C91.73 443.03 90.39 444.3 89.1 445.54C88.09 446.5 87.05 447.5 85.96 448.39C85.08 449.11 84.01 449.87 82.82 450.04C81.77 450.17 80.47 449.69 80.1 448.65Z" fill="#FFBE55"/>
<path d="M109.92 454.46C109.71 454.46 109.53 454.29 109.53 454.07C109.53 453.83 109.06 430.21 80.51 410.36C80.33 410.24 80.29 409.99 80.41 409.82C80.53 409.64 80.78 409.6 80.95 409.72C109.86 429.82 110.31 453.83 110.31 454.07C110.32 454.28 110.14 454.46 109.92 454.46C109.93 454.46 109.93 454.46 109.92 454.46Z" fill="#0B4870"/>
<path d="M109.93 454.46C109.78 454.46 109.64 454.38 109.58 454.24C109.49 454.05 100.46 435.34 76.8 435.34C76.58 435.34 76.41 435.17 76.41 434.95C76.41 434.73 76.58 434.56 76.8 434.56C100.97 434.56 110.19 453.72 110.28 453.91C110.37 454.11 110.29 454.34 110.09 454.43C110.04 454.44 109.98 454.46 109.93 454.46Z" fill="#0B4870"/>
<path d="M82.28 447.69C82.16 447.69 82.05 447.64 81.97 447.53C81.84 447.36 81.87 447.11 82.05 446.98C91.84 439.59 96.59 439.85 96.79 439.86C97 439.88 97.17 440.06 97.15 440.28C97.13 440.49 96.95 440.67 96.73 440.64C96.68 440.64 92.02 440.44 82.52 447.6C82.44 447.67 82.36 447.69 82.28 447.69Z" fill="#0B4870"/>
<path d="M495.76 437.96H221.58C215.54 437.96 210.63 433.05 210.63 427.01V58.01C210.63 51.97 215.54 47.06 221.58 47.06H303.53V50.06H221.58C217.2 50.06 213.63 53.63 213.63 58.01V427.01C213.63 431.39 217.2 434.96 221.58 434.96H495.76C500.14 434.96 503.71 431.39 503.71 427.01V58.01C503.71 53.63 500.14 50.06 495.76 50.06H413.83V47.06H495.76C501.8 47.06 506.71 51.97 506.71 58.01V427.01C506.71 433.04 501.8 437.96 495.76 437.96Z" fill="#FFBE55"/>
<path d="M484.32 418.56H233.02C230.89 418.56 229.16 416.83 229.16 414.7V70.32C229.16 68.19 230.89 66.46 233.02 66.46H484.32C486.45 66.46 488.18 68.19 488.18 70.32V414.7C488.18 416.83 486.45 418.56 484.32 418.56Z" fill="#F2F2F2"/>
<path d="M415.13 76.68H302.21V39.73H334.9C335.12 26.81 345.7 16.36 358.67 16.36C371.64 16.36 382.22 26.81 382.44 39.73H415.13V76.68V76.68ZM305.21 73.68H412.13V42.73H379.31L379.41 40.75C379.42 40.55 379.44 40.34 379.44 40.13C379.44 28.68 370.12 19.36 358.67 19.36C347.22 19.36 337.9 28.68 337.9 40.13C337.9 40.34 337.92 40.55 337.93 40.75L338.03 42.73H305.21V73.68Z" fill="#FFBE55"/>
<path d="M358.67 54.14C350.95 54.14 344.66 47.86 344.66 40.13C344.66 32.4 350.94 26.12 358.67 26.12C366.4 26.12 372.68 32.4 372.68 40.13C372.68 47.86 366.39 54.14 358.67 54.14ZM358.67 29.13C352.6 29.13 347.66 34.07 347.66 40.14C347.66 46.21 352.6 51.15 358.67 51.15C364.74 51.15 369.68 46.21 369.68 40.14C369.68 34.07 364.74 29.13 358.67 29.13Z" fill="#FFBE55"/>
<path d="M753 495.86H21C9.4 495.86 0 486.46 0 474.86C0 463.26 9.4 453.86 21 453.86H753C764.6 453.86 774 463.26 774 474.86C774 486.46 764.6 495.86 753 495.86Z" fill="#D3D3D3"/>
<path d="M305.08 164.21H261.81V120.94H305.08V164.21ZM262.81 163.21H304.08V121.94H262.81V163.21Z" fill="#0B4870"/>
<path d="M462.6 133.44H324.87C323.97 133.44 323.24 132.71 323.24 131.81C323.24 130.91 323.97 130.18 324.87 130.18H462.6C463.5 130.18 464.23 130.91 464.23 131.81C464.23 132.71 463.5 133.44 462.6 133.44Z" fill="#0B4870"/>
<path d="M462.6 140.62H324.87C323.97 140.62 323.24 139.89 323.24 138.99C323.24 138.09 323.97 137.36 324.87 137.36H462.6C463.5 137.36 464.23 138.09 464.23 138.99C464.23 139.89 463.5 140.62 462.6 140.62Z" fill="#0B4870"/>
<path d="M462.6 147.79H324.87C323.97 147.79 323.24 147.06 323.24 146.16C323.24 145.26 323.97 144.53 324.87 144.53H462.6C463.5 144.53 464.23 145.26 464.23 146.16C464.23 147.06 463.5 147.79 462.6 147.79Z" fill="#0B4870"/>
<path d="M462.6 154.97H324.87C323.97 154.97 323.24 154.24 323.24 153.34C323.24 152.44 323.97 151.71 324.87 151.71H462.6C463.5 151.71 464.23 152.44 464.23 153.34C464.23 154.24 463.5 154.97 462.6 154.97Z" fill="#0B4870"/>
<path d="M305.08 232.26H261.81V188.99H305.08V232.26ZM262.81 231.26H304.08V189.99H262.81V231.26Z" fill="#0B4870"/>
<path d="M284.87 222.72L270.57 211.49L273.04 208.35L284.6 217.42L309.63 193.31L312.4 196.19L284.87 222.72Z" fill="#0B4870"/>
<path d="M462.6 201.49H324.87C323.97 201.49 323.24 200.76 323.24 199.86C323.24 198.96 323.97 198.23 324.87 198.23H462.6C463.5 198.23 464.23 198.96 464.23 199.86C464.23 200.76 463.5 201.49 462.6 201.49Z" fill="#0B4870"/>
<path d="M462.6 208.67H324.87C323.97 208.67 323.24 207.94 323.24 207.04C323.24 206.14 323.97 205.41 324.87 205.41H462.6C463.5 205.41 464.23 206.14 464.23 207.04C464.23 207.94 463.5 208.67 462.6 208.67Z" fill="#0B4870"/>
<path d="M462.6 215.84H324.87C323.97 215.84 323.24 215.11 323.24 214.21C323.24 213.31 323.97 212.58 324.87 212.58H462.6C463.5 212.58 464.23 213.31 464.23 214.21C464.23 215.11 463.5 215.84 462.6 215.84Z" fill="#0B4870"/>
<path d="M462.6 223.02H324.87C323.97 223.02 323.24 222.29 323.24 221.39C323.24 220.49 323.97 219.76 324.87 219.76H462.6C463.5 219.76 464.23 220.49 464.23 221.39C464.23 222.29 463.5 223.02 462.6 223.02Z" fill="#0B4870"/>
<path d="M305.08 300.31H261.81V257.04H305.08V300.31ZM262.81 299.31H304.08V258.04H262.81V299.31Z" fill="#0B4870"/>
<path d="M462.6 269.54H324.87C323.97 269.54 323.24 268.81 323.24 267.91C323.24 267.01 323.97 266.28 324.87 266.28H462.6C463.5 266.28 464.23 267.01 464.23 267.91C464.23 268.81 463.5 269.54 462.6 269.54Z" fill="#0B4870"/>
<path d="M462.6 276.72H324.87C323.97 276.72 323.24 275.99 323.24 275.09C323.24 274.19 323.97 273.46 324.87 273.46H462.6C463.5 273.46 464.23 274.19 464.23 275.09C464.23 275.99 463.5 276.72 462.6 276.72Z" fill="#0B4870"/>
<path d="M462.6 283.89H324.87C323.97 283.89 323.24 283.16 323.24 282.26C323.24 281.36 323.97 280.63 324.87 280.63H462.6C463.5 280.63 464.23 281.36 464.23 282.26C464.23 283.16 463.5 283.89 462.6 283.89Z" fill="#0B4870"/>
<path d="M462.6 291.07H324.87C323.97 291.07 323.24 290.34 323.24 289.44C323.24 288.54 323.97 287.81 324.87 287.81H462.6C463.5 287.81 464.23 288.54 464.23 289.44C464.23 290.34 463.5 291.07 462.6 291.07Z" fill="#0B4870"/>
<path d="M305.08 368.36H261.81V325.09H305.08V368.36ZM262.81 367.36H304.08V326.09H262.81V367.36Z" fill="#0B4870"/>
<path d="M462.6 337.59H324.87C323.97 337.59 323.24 336.86 323.24 335.96C323.24 335.06 323.97 334.33 324.87 334.33H462.6C463.5 334.33 464.23 335.06 464.23 335.96C464.23 336.86 463.5 337.59 462.6 337.59Z" fill="#0B4870"/>
<path d="M462.6 344.77H324.87C323.97 344.77 323.24 344.04 323.24 343.14C323.24 342.24 323.97 341.51 324.87 341.51H462.6C463.5 341.51 464.23 342.24 464.23 343.14C464.23 344.04 463.5 344.77 462.6 344.77Z" fill="#0B4870"/>
<path d="M462.6 351.94H324.87C323.97 351.94 323.24 351.21 323.24 350.31C323.24 349.41 323.97 348.68 324.87 348.68H462.6C463.5 348.68 464.23 349.41 464.23 350.31C464.23 351.21 463.5 351.94 462.6 351.94Z" fill="#0B4870"/>
<path d="M462.6 359.12H324.87C323.97 359.12 323.24 358.39 323.24 357.49C323.24 356.59 323.97 355.86 324.87 355.86H462.6C463.5 355.86 464.23 356.59 464.23 357.49C464.23 358.39 463.5 359.12 462.6 359.12Z" fill="#0B4870"/>
<path d="M469.57 289.32C471.81 287.73 473.87 285.89 474.82 285.35C475.22 285.13 476.46 284.85 476.81 284.74C477.85 284.43 479.51 284.11 480.23 283.3L483.31 279.92C484.77 278.26 486.68 277.71 488.33 279.17C490.12 280.75 489.59 283 487.81 284.6L485.7 287C484.28 288.28 483.57 290.08 482.78 291.82C481.18 295.37 477.55 298.04 474.45 299.91C472.5 301.08 469.55 300.25 465.68 298.93C463.78 298.28 461.03 296.71 463.4 295.82C465.39 295.08 471.37 296.69 474.01 291.18C474.14 290.91 474.42 290.19 474.15 289.94C473.35 289.19 471.58 290.89 470.4 291.43C468.74 292.19 467.41 291.93 467 291.32C466.56 290.68 467.97 290.46 469.57 289.32Z" fill="#FAB9AF"/>
<path d="M553.73 168.43C553.73 168.43 548.79 227.73 531.06 247.74C520.38 259.8 494.25 280.48 488.2 285.22C487.43 285.82 486.35 285.85 485.55 285.29C485.04 284.93 484.46 284.49 483.96 284.05C483.45 283.6 482.86 282.95 482.33 282.33C481.45 281.3 481.49 279.77 482.41 278.78C489.19 271.41 515.79 242.2 519.03 234.52C522.74 225.71 529.13 173.7 535 166.17C540.87 158.62 552.12 156.99 553.73 168.43Z" fill="#FFBE55"/>
<path d="M531.34 266.39L546.46 160.19L587.23 154.59L608.44 265.63L531.34 266.39Z" fill="#FAB9AF"/>
<path d="M562.86 430.96L562.82 442.93C562.81 445.37 563.14 447.79 563.8 450.13L564.84 453.82C565.69 456.85 563.42 459.85 560.27 459.84C552.12 459.81 538.18 459.83 534.59 459.84C534 459.84 533.43 459.44 533.38 458.86C533.08 455.37 543.17 453.02 550.78 450.08C556.57 447.84 556.26 437.43 555.55 431.35C555.28 429.05 557.2 427.1 559.5 427.29C561.4 427.45 562.87 429.05 562.86 430.96Z" fill="#FAB9AF"/>
<path d="M618.9 427.6L623.02 441.29C623.2 441.9 623.47 442.47 623.83 442.99L626.75 447.33C628.61 450.09 627.27 453.85 624.09 454.82C624.09 454.82 618.19 456.89 612.12 458.89C605.9 460.93 598.07 459.23 598.07 457.58C598.07 453.93 601.47 456.83 607.17 453.02C609.08 451.74 611.05 450.41 612.81 449.03C617.71 445.18 613.43 435.44 610.43 429.95C609.35 427.98 610.5 425.53 612.7 425.06L614.12 424.76C616.2 424.33 618.28 425.56 618.9 427.6Z" fill="#FAB9AF"/>
<path d="M576.77 267.42L531.58 263.63C531.58 263.63 527.03 296.52 538.45 356.05C543.81 383.97 554.97 437.32 554.97 437.32C557.74 438.53 560.55 438.83 563.41 438.12C563.41 438.12 564.26 414.59 564.78 389.24C565.28 364.94 565.41 338.97 566.96 330.47C570.12 313.11 576.77 267.42 576.77 267.42Z" fill="#0B4870"/>
<path d="M567.44 267.99C562.77 293.03 552.35 330.47 572.43 365.64C592.5 400.81 613.59 437.38 613.59 437.38C616.31 437.49 618.77 436.51 621.06 434.77C621.06 434.77 617.54 418.83 612.45 400.21C606.63 378.91 599.26 353.86 601.36 340.8C605.3 316.32 609.82 283.72 608.45 267.88C607.07 252.04 569.89 254.83 567.44 267.99Z" fill="#0B4870"/>
<path d="M529.78 263.69L546.46 160.19L587.24 154.59L609.15 263.88C609.56 265.93 608.23 267.93 606.17 268.32C598.58 269.76 580.27 272.76 559.77 272.76C544.47 272.76 535.87 269.79 531.96 267.9C530.38 267.14 529.5 265.43 529.78 263.69Z" fill="#F2F2F2"/>
<path d="M610.49 303.75C611.11 301.08 611.45 298.33 611.8 297.3C611.95 296.87 612.7 295.84 612.89 295.52C613.47 294.6 614.5 293.26 614.5 292.18L614.58 287.61C614.58 285.4 615.65 283.73 617.85 283.73C620.24 283.73 621.33 285.77 621.05 288.15V291.35C620.83 293.25 621.49 295.07 622.05 296.9C623.19 300.62 622.24 305.02 621.15 308.48C620.47 310.65 617.7 311.98 613.93 313.54C612.08 314.31 608.97 314.95 610.16 312.72C611.16 310.85 616.71 308.11 615.05 302.22C614.97 301.93 614.71 301.2 614.34 301.19C613.24 301.16 613.04 303.6 612.51 304.79C611.77 306.46 610.6 307.14 609.88 306.96C609.13 306.76 610.04 305.66 610.49 303.75Z" fill="#FAB9AF"/>
<path d="M574.5 161.04C574.5 168.5 575.86 175.88 578.4 182.89C583.38 196.6 590.86 222.52 586.41 245.36C580.02 278.25 571.79 291.54 582.45 299.21C593.11 306.87 613.55 294.09 614.14 289.82C614.73 285.56 610.16 233.19 604.99 210.5C599.81 187.81 585.31 155.19 585.31 155.19L579.17 155.85C576.51 156.13 574.5 158.37 574.5 161.04Z" fill="#FFBE55"/>
<path d="M593.66 157.41C593.66 157.41 629.18 205.16 629.11 231.89C629.07 248 623.15 280.79 621.75 288.35C621.57 289.31 620.79 290.05 619.81 290.15C619.19 290.22 618.46 290.27 617.8 290.27C617.13 290.27 616.25 290.17 615.44 290.06C614.1 289.87 613.12 288.7 613.15 287.34C613.36 277.33 614 237.83 611.34 229.92C608.29 220.85 578.69 177.63 578.11 168.09C577.52 158.56 584.89 149.89 593.66 157.41Z" fill="#FFBE55"/>
<path d="M557.52 158.67C557.52 158.67 550.45 173.95 552.91 195.91C555.38 217.87 561.09 284.74 541.11 294.84C534.78 298.04 520.33 283.88 520.33 278.62C520.33 273.36 525.15 255.78 529.72 239.79C534.29 223.8 545.3 160.34 545.3 160.34L557.52 158.67Z" fill="#FFBE55"/>
<path d="M563.21 111.3C572.31 111.3 575.71 117.78 575.88 129.76C575.95 134.25 573.93 138.69 572.3 141.53C571.09 143.64 570.76 146.14 571.45 148.47L573.45 155.23C574.81 161.5 571.83 164.95 567.43 166.2C565.25 166.82 562.64 166.34 560.74 165.11C558.48 163.65 558.29 160.5 558.71 157.84L559.23 155.91C559.93 153.31 558.42 150.51 555.79 149.94C548.78 148.41 547.78 141.1 545.9 129.76C543.94 117.94 554.11 111.3 563.21 111.3Z" fill="#FAB9AF"/>
<path d="M542.02 106.04L547.24 107.63C549.16 108.21 551.2 108.23 553.13 107.67L563.55 104.65C569.86 104.65 580.29 108.21 578.97 117.32L577.81 123.76C577.35 126.33 575.2 128.26 572.59 128.48C572.35 129.37 571.54 129.99 570.62 129.99C569.49 129.99 568.58 129.08 568.58 127.95C568.58 125.04 566.54 122.57 563.71 121.93C560.23 121.15 556.52 120.96 552.63 122.01C545.39 123.96 537.75 119.47 537.03 112C536.98 111.53 536.96 111.05 536.96 110.56C536.95 107.54 539.44 105.33 542.02 106.04Z" fill="#0B4870"/>
<path d="M570.87 129.98C570.87 132.76 571.9 135.01 574.58 135.01C577.26 135.01 578.97 131.19 578.97 128.41C578.97 125.63 577.25 124.95 574.58 124.95C571.9 124.95 570.87 127.21 570.87 129.98Z" fill="#FAB9AF"/>
<path d="M571.97 142.18C571.97 142.18 565.17 151.52 556.72 150.26C556.72 150.26 558.48 151.1 558.9 152.46C558.9 152.46 566.93 151.87 571.97 142.18Z" fill="#E8948B"/>
<path d="M590 11.94C590 18.43 585.72 23.7 580.43 23.7H466.96C461.68 23.7 457.39 18.44 457.39 11.94C457.39 5.45 461.67 0.179993 466.96 0.179993H580.43C585.72 0.189993 590 5.45 590 11.94Z" fill="#F2F2F2"/>
<path d="M183.83 74.9C183.83 81.39 178.57 86.66 172.07 86.66H32.65C26.16 86.66 20.89 81.4 20.89 74.9C20.89 68.41 26.15 63.14 32.65 63.14H172.08C178.57 63.14 183.83 68.4 183.83 74.9Z" fill="#F2F2F2"/>
<path d="M240.83 11.9C240.83 18.39 236.47 23.66 231.1 23.66H115.73C110.36 23.66 106 18.4 106 11.9C106 5.40999 110.36 0.140015 115.73 0.140015H231.1C236.47 0.140015 240.83 5.39999 240.83 11.9Z" fill="#F2F2F2"/>
<path d="M714.22 62.86C714.22 69.35 708.96 74.62 702.46 74.62H563.04C556.55 74.62 551.28 69.36 551.28 62.86C551.28 56.37 556.54 51.1 563.04 51.1H702.47C708.96 51.11 714.22 56.37 714.22 62.86Z" fill="#F2F2F2"/>
</svg>
